<svg width="48" height="54" viewBox="0 0 48 54" fill="none" xmlns="http://www.w3.org/2000/svg">
<path d="M40.3309 28.6333C35.4679 29.5673 25.4169 25.9453 25.3119 25.1313C25.2079 24.3183 25.2379 23.8483 25.3119 23.0313C25.4969 20.9913 27.0819 20.0933 26.9459 18.0503C26.6909 14.1823 23.3459 11.2783 19.4759 11.5133C15.8509 11.7333 12.9659 14.4203 12.8609 18.0503C12.8567 18.1799 12.8567 18.3097 12.8609 18.4393M40.3309 28.6333C39.8139 30.8523 39.3959 33.8053 38.1609 35.7193C36.1249 38.8713 32.1209 41.6013 30.6739 41.7853C29.7699 41.9003 28.7359 41.7853 28.7359 41.7853M40.3309 28.6333C38.7409 32.0383 37.7829 33.1983 34.7979 33.0803M12.8609 18.4393L16.6459 20.8423C16.7265 20.893 16.7929 20.9634 16.8387 21.0468C16.8846 21.1303 16.9084 21.2241 16.9079 21.3193V22.8253C16.9077 22.9588 16.8606 23.088 16.7749 23.1903L15.6629 24.5093M12.8609 18.4393C10.3109 18.9893 7.79089 17.4723 7.72689 18.5033L7.71989 18.5853C7.69689 18.7643 7.61389 19.5053 7.72489 19.9843C7.97889 21.0723 9.56289 22.1753 9.56289 22.1753M28.7359 41.7853V45.2663C28.7359 45.4164 28.6763 45.5604 28.5701 45.6665C28.464 45.7727 28.32 45.8323 28.1699 45.8323H23.9749M28.7359 41.7853H26.5569M15.6629 24.5093H9.61389C9.46378 24.5093 9.31982 24.4497 9.21367 24.3435C9.10753 24.2374 9.04789 24.0934 9.04789 23.9433V22.6903C9.04789 22.4063 9.27789 22.1753 9.56389 22.1753H14.4159C14.4965 22.1759 14.5764 22.159 14.6499 22.1259C14.7234 22.0927 14.7889 22.0441 14.8419 21.9833L14.9129 21.9013M15.6629 24.5093V25.0163V25.3973M19.8649 36.5743C19.8649 36.5743 22.9909 39.2173 26.5579 39.2173C30.4679 39.2173 34.9619 35.6543 34.9619 33.7703C34.9619 32.1083 31.0709 28.1023 25.3119 28.1023C21.6779 28.1023 19.8649 29.5683 19.8649 29.5683M23.9749 45.8323H22.6099C22.2969 45.8323 22.0439 45.5793 22.0439 45.2663V44.7643C22.0439 44.6142 22.1035 44.4702 22.2097 44.3641C22.3158 44.2579 22.4598 44.1983 22.6099 44.1983H23.1899C23.2642 44.1983 23.3378 44.1837 23.4065 44.1552C23.4752 44.1268 23.5376 44.0851 23.5901 44.0325C23.6427 43.98 23.6844 43.9176 23.7128 43.8489C23.7413 43.7802 23.7559 43.7066 23.7559 43.6323V41.7863L26.5569 41.7853M23.9749 45.8323L26.3919 43.4153C26.4979 43.3093 26.5569 43.1653 26.5569 43.0153V41.7853M23.7569 41.7853C23.7569 41.7853 22.7099 41.8503 22.0439 41.7853C17.2379 41.3203 14.4969 37.1753 14.0289 32.3693C13.7889 29.9003 15.3129 26.3113 15.6119 25.6343C15.6448 25.5596 15.6622 25.479 15.6629 25.3973M15.6629 25.3973L18.2519 25.2963" stroke="white" stroke-width="1.36" stroke-linecap="round" stroke-linejoin="round"/>
<path d="M28.9759 43.248C33.8329 43.546 37.2079 44.59 37.2079 45.831C37.2079 47.305 32.1529 48.5 25.9179 48.5C19.6829 48.5 14.6279 47.305 14.6279 45.831C14.6279 44.536 18.3959 43.491 23.5739 43.248" stroke="white" stroke-linecap="round" stroke-linejoin="round"/>
<path d="M8.48824 16.384C9.04065 16.5525 9.72705 16.7429 10.5666 16.9626L20.1867 16.6862L28.4556 18.0555L30.5949 18.4098C30.7102 18.4289 30.819 18.3502 30.8358 18.2345C30.8844 17.8992 30.9244 17.571 30.9563 17.2501C31.9898 17.8835 32.2774 18.4505 31.07 18.9224L27.4103 18.3717L23.5542 17.7915L20.1077 17.2729C20.0964 17.2712 20.0849 17.2704 20.0735 17.2706L10.5211 17.4091C10.4952 17.4094 10.4686 17.4047 10.4443 17.3957C7.91654 16.4597 7.74 16.329 7.59688 16.0891L8.48824 16.384Z" fill="#936A12"/>
<path d="M12.2811 14.1168C12.3426 13.9242 12.4079 13.7348 12.4769 13.5484C16.3777 3.00846 32.0015 2.47621 31.0061 16.6661C29.0469 16.0462 28.3923 16.233 28.4556 18.0555L23.6548 17.2605C23.9186 16.6323 23.9709 16.1185 23.8454 15.5011C23.8339 15.4448 23.7985 15.3962 23.7488 15.3676C22.8166 14.8318 22.0397 14.7893 20.6794 14.7939C20.6053 14.7941 20.5363 14.8336 20.4998 14.8982C20.1356 15.5433 20.0543 15.9526 20.1867 16.6862C18.1004 16.2632 16.4678 15.9145 15.2404 15.6071C15.3914 15.1233 15.4245 14.823 15.4033 14.3128C15.4005 14.2472 15.3664 14.1865 15.3113 14.1508C14.6572 13.7268 14.1848 13.6634 13.3844 13.6901C13.3034 13.6928 13.2309 13.7427 13.2006 13.8179C13.0513 14.1886 12.9927 14.4451 13.0196 14.9191C12.4028 14.6487 12.1743 14.3934 12.2811 14.1168Z" fill="#ECA61B"/>
<path d="M12.4769 13.5484C12.4079 13.7348 12.3426 13.9242 12.2811 14.1168C12.1743 14.3934 12.4028 14.6487 13.0196 14.9191C13.5078 15.133 14.2393 15.3564 15.2404 15.6071C16.4678 15.9145 18.1004 16.2632 20.1867 16.6862L10.5666 16.9626L8.48824 16.384L7.59688 16.0891C6.44649 15.6658 6.3527 15.3918 6.82685 15.0787C9.18691 14.6837 10.673 14.6777 12.4769 13.5484Z" fill="#936A12"/>
<path d="M15.3113 14.1508C15.3664 14.1865 15.4005 14.2472 15.4033 14.3128C15.4245 14.823 15.3914 15.1233 15.2404 15.6071C14.2393 15.3564 13.5078 15.133 13.0196 14.9191C12.9927 14.4451 13.0513 14.1886 13.2006 13.8179C13.2309 13.7427 13.3034 13.6928 13.3844 13.6901C14.1848 13.6634 14.6572 13.7268 15.3113 14.1508Z" fill="#004CFF"/>
<path d="M23.6548 17.2605L20.1867 16.6862C20.0543 15.9526 20.1356 15.5433 20.4998 14.8982C20.5363 14.8336 20.6053 14.7941 20.6794 14.7939C22.0397 14.7893 22.8166 14.8318 23.7488 15.3676C23.7985 15.3962 23.8339 15.4448 23.8454 15.5011C23.9709 16.1185 23.9186 16.6323 23.6548 17.2605Z" fill="#004CFF"/>
<path d="M30.8358 18.2345C30.819 18.3502 30.7102 18.4289 30.5949 18.4098L28.4556 18.0555C28.3923 16.233 29.0469 16.0462 31.0061 16.6661C30.9926 16.8581 30.9759 17.0527 30.9563 17.2501C30.9244 17.571 30.8844 17.8992 30.8358 18.2345Z" fill="#004CFF"/>
<path d="M27.4103 18.3717L29.4788 20.4861C29.5232 20.5315 29.5448 20.5954 29.5366 20.6584C29.3447 22.1456 28.9443 22.5971 27.6361 22.4352C27.5855 22.4289 27.5385 22.4035 27.5052 22.3649L23.5542 17.7915L27.4103 18.3717Z" fill="#ECA61B"/>
<path d="M12.4769 13.5484C12.4079 13.7348 12.3426 13.9242 12.2811 14.1168C12.1743 14.3934 12.4028 14.6487 13.0196 14.9191M12.4769 13.5484C10.673 14.6777 9.18691 14.6837 6.82685 15.0787M12.4769 13.5484C16.3777 3.00846 32.0015 2.47621 31.0061 16.6661M6.82685 15.0787C6.25096 15.459 6.51289 15.7815 8.48824 16.384M6.82685 15.0787C6.3527 15.3918 6.44649 15.6658 7.59688 16.0891M10.5666 16.9626L20.1867 16.6862M10.5666 16.9626C9.72705 16.7429 9.04065 16.5525 8.48824 16.384M10.5666 16.9626L8.48824 16.384M20.1867 16.6862L28.4556 18.0555M20.1867 16.6862C20.0543 15.9526 20.1356 15.5433 20.4998 14.8982C20.5363 14.8336 20.6053 14.7941 20.6794 14.7939C22.0397 14.7893 22.8166 14.8318 23.7488 15.3676C23.7985 15.3962 23.8339 15.4448 23.8454 15.5011C23.9709 16.1185 23.9186 16.6323 23.6548 17.2605M20.1867 16.6862C18.1004 16.2632 16.4678 15.9145 15.2404 15.6071M20.1867 16.6862L23.6548 17.2605M30.9563 17.2501C30.9244 17.571 30.8844 17.8992 30.8358 18.2345C30.819 18.3502 30.7102 18.4289 30.5949 18.4098L28.4556 18.0555M30.9563 17.2501C31.9898 17.8835 32.2774 18.4505 31.07 18.9224M30.9563 17.2501C30.9759 17.0527 30.9926 16.8581 31.0061 16.6661M31.07 18.9224L23.5542 17.7915M31.07 18.9224L27.4103 18.3717M7.59688 16.0891C7.74 16.329 7.91654 16.4597 10.4443 17.3957C10.4686 17.4047 10.4952 17.4094 10.5211 17.4091L20.0735 17.2706C20.0849 17.2704 20.0964 17.2712 20.1077 17.2729L23.5542 17.7915M7.59688 16.0891L8.48824 16.384M27.4103 18.3717L29.4788 20.4861C29.5232 20.5315 29.5448 20.5954 29.5366 20.6584C29.3447 22.1456 28.9443 22.5971 27.6361 22.4352C27.5855 22.4289 27.5385 22.4035 27.5052 22.3649L23.5542 17.7915M27.4103 18.3717L23.5542 17.7915M31.0061 16.6661C29.0469 16.0462 28.3923 16.233 28.4556 18.0555M28.4556 18.0555L23.6548 17.2605M15.2404 15.6071C15.3914 15.1233 15.4245 14.823 15.4033 14.3128C15.4005 14.2472 15.3664 14.1865 15.3113 14.1508C14.6572 13.7268 14.1848 13.6634 13.3844 13.6901C13.3034 13.6928 13.2309 13.7427 13.2006 13.8179C13.0513 14.1886 12.9927 14.4451 13.0196 14.9191M15.2404 15.6071C14.2393 15.3564 13.5078 15.133 13.0196 14.9191M28.993 10.0153C26.6237 7.03737 21.8846 6.10414 18.2222 7.76153" stroke="white" stroke-width="0.35" stroke-linecap="round"/>
</svg>
