<svg width="49" height="48" viewBox="0 0 49 48" fill="none" xmlns="http://www.w3.org/2000/svg">
<path d="M40.9974 22.6333C36.1344 23.5673 26.0834 19.9453 25.9784 19.1313C25.8744 18.3183 25.9044 17.8483 25.9784 17.0313C26.1634 14.9913 27.7484 14.0933 27.6124 12.0503C27.3574 8.18231 24.0124 5.27831 20.1424 5.51331C16.5174 5.73331 13.6324 8.42031 13.5274 12.0503C13.5232 12.1799 13.5232 12.3097 13.5274 12.4393M40.9974 22.6333C40.4804 24.8523 40.0624 27.8053 38.8274 29.7193C36.7914 32.8713 32.7874 35.6013 31.3404 35.7853C30.4364 35.9003 29.4024 35.7853 29.4024 35.7853M40.9974 22.6333C39.4074 26.0383 38.4494 27.1983 35.4644 27.0803M13.5274 12.4393L17.3124 14.8423C17.393 14.893 17.4594 14.9634 17.5052 15.0468C17.5511 15.1303 17.5749 15.2241 17.5744 15.3193V16.8253C17.5742 16.9588 17.5271 17.088 17.4414 17.1903L16.3294 18.5093M13.5274 12.4393C10.9774 12.9893 8.4574 11.4723 8.3934 12.5033L8.3864 12.5853C8.3634 12.7643 8.2804 13.5053 8.3914 13.9843C8.6454 15.0723 10.2294 16.1753 10.2294 16.1753M29.4024 35.7853V39.2663C29.4024 39.4164 29.3428 39.5604 29.2366 39.6665C29.1305 39.7727 28.9865 39.8323 28.8364 39.8323H24.6414M29.4024 35.7853H27.2234M16.3294 18.5093H10.2804C10.1303 18.5093 9.98632 18.4497 9.88018 18.3435C9.77403 18.2374 9.7144 18.0934 9.7144 17.9433V16.6903C9.7144 16.4063 9.9444 16.1753 10.2304 16.1753H15.0824C15.163 16.1759 15.2429 16.159 15.3164 16.1259C15.3899 16.0927 15.4554 16.0441 15.5084 15.9833L15.5794 15.9013M16.3294 18.5093V19.0163V19.3973M20.5314 30.5743C20.5314 30.5743 23.6574 33.2173 27.2244 33.2173C31.1344 33.2173 35.6284 29.6543 35.6284 27.7703C35.6284 26.1083 31.7374 22.1023 25.9784 22.1023C22.3444 22.1023 20.5314 23.5683 20.5314 23.5683M24.6414 39.8323H23.2764C22.9634 39.8323 22.7104 39.5793 22.7104 39.2663V38.7643C22.7104 38.6142 22.77 38.4702 22.8762 38.3641C22.9823 38.2579 23.1263 38.1983 23.2764 38.1983H23.8564C23.9307 38.1983 24.0043 38.1837 24.073 38.1552C24.1417 38.1268 24.2041 38.0851 24.2566 38.0325C24.3092 37.98 24.3509 37.9176 24.3793 37.8489C24.4078 37.7802 24.4224 37.7066 24.4224 37.6323V35.7863L27.2234 35.7853M24.6414 39.8323L27.0584 37.4153C27.1644 37.3093 27.2234 37.1653 27.2234 37.0153V35.7853M24.4234 35.7853C24.4234 35.7853 23.3764 35.8503 22.7104 35.7853C17.9044 35.3203 15.1634 31.1753 14.6954 26.3693C14.4554 23.9003 15.9794 20.3113 16.2784 19.6343C16.3113 19.5596 16.3287 19.479 16.3294 19.3973M16.3294 19.3973L18.9184 19.2963" stroke="white" stroke-width="1.36" stroke-linecap="round" stroke-linejoin="round"/>
<path d="M29.6424 37.248C34.4994 37.546 37.8744 38.59 37.8744 39.831C37.8744 41.305 32.8194 42.5 26.5844 42.5C20.3494 42.5 15.2944 41.305 15.2944 39.831C15.2944 38.536 19.0624 37.491 24.2404 37.248" stroke="white" stroke-linecap="round" stroke-linejoin="round"/>
</svg>
