<svg width="49" height="54" viewBox="0 0 49 54" fill="none" xmlns="http://www.w3.org/2000/svg">
<path d="M40.9974 28.6333C36.1344 29.5673 26.0834 25.9453 25.9784 25.1313C25.8744 24.3183 25.9044 23.8483 25.9784 23.0313C26.1634 20.9913 27.7484 20.0933 27.6124 18.0503C27.3574 14.1823 24.0124 11.2783 20.1424 11.5133C16.5174 11.7333 13.6324 14.4203 13.5274 18.0503C13.5232 18.1799 13.5232 18.3097 13.5274 18.4393M40.9974 28.6333C40.4804 30.8523 40.0624 33.8053 38.8274 35.7193C36.7914 38.8713 32.7874 41.6013 31.3404 41.7853C30.4364 41.9003 29.4024 41.7853 29.4024 41.7853M40.9974 28.6333C39.4074 32.0383 38.4494 33.1983 35.4644 33.0803M13.5274 18.4393L17.3124 20.8423C17.393 20.893 17.4594 20.9634 17.5052 21.0468C17.5511 21.1303 17.5749 21.2241 17.5744 21.3193V22.8253C17.5742 22.9588 17.5271 23.088 17.4414 23.1903L16.3294 24.5093M13.5274 18.4393C10.9774 18.9893 8.4574 17.4723 8.3934 18.5033L8.3864 18.5853C8.3634 18.7643 8.2804 19.5053 8.3914 19.9843C8.6454 21.0723 10.2294 22.1753 10.2294 22.1753M29.4024 41.7853V45.2663C29.4024 45.4164 29.3428 45.5604 29.2366 45.6665C29.1305 45.7727 28.9865 45.8323 28.8364 45.8323H24.6414M29.4024 41.7853H27.2234M16.3294 24.5093H10.2804C10.1303 24.5093 9.98632 24.4497 9.88018 24.3435C9.77403 24.2374 9.7144 24.0934 9.7144 23.9433V22.6903C9.7144 22.4063 9.9444 22.1753 10.2304 22.1753H15.0824C15.163 22.1759 15.2429 22.159 15.3164 22.1259C15.3899 22.0927 15.4554 22.0441 15.5084 21.9833L15.5794 21.9013M16.3294 24.5093V25.0163V25.3973M20.5314 36.5743C20.5314 36.5743 23.6574 39.2173 27.2244 39.2173C31.1344 39.2173 35.6284 35.6543 35.6284 33.7703C35.6284 32.1083 31.7374 28.1023 25.9784 28.1023C22.3444 28.1023 20.5314 29.5683 20.5314 29.5683M24.6414 45.8323H23.2764C22.9634 45.8323 22.7104 45.5793 22.7104 45.2663V44.7643C22.7104 44.6142 22.77 44.4702 22.8762 44.3641C22.9823 44.2579 23.1263 44.1983 23.2764 44.1983H23.8564C23.9307 44.1983 24.0043 44.1837 24.073 44.1552C24.1417 44.1268 24.2041 44.0851 24.2566 44.0325C24.3092 43.98 24.3509 43.9176 24.3793 43.8489C24.4078 43.7802 24.4224 43.7066 24.4224 43.6323V41.7863L27.2234 41.7853M24.6414 45.8323L27.0584 43.4153C27.1644 43.3093 27.2234 43.1653 27.2234 43.0153V41.7853M24.4234 41.7853C24.4234 41.7853 23.3764 41.8503 22.7104 41.7853C17.9044 41.3203 15.1634 37.1753 14.6954 32.3693C14.4554 29.9003 15.9794 26.3113 16.2784 25.6343C16.3113 25.5596 16.3287 25.479 16.3294 25.3973M16.3294 25.3973L18.9184 25.2963" stroke="white" stroke-width="1.36" stroke-linecap="round" stroke-linejoin="round"/>
<path d="M29.6424 43.248C34.4994 43.546 37.8744 44.59 37.8744 45.831C37.8744 47.305 32.8194 48.5 26.5844 48.5C20.3494 48.5 15.2944 47.305 15.2944 45.831C15.2944 44.536 19.0624 43.491 24.2404 43.248" stroke="white" stroke-linecap="round" stroke-linejoin="round"/>
<path d="M9.15475 16.384C9.70715 16.5525 10.3936 16.7429 11.2331 16.9626L20.8532 16.6862L29.1221 18.0555L31.2614 18.4098C31.3767 18.4289 31.4855 18.3502 31.5023 18.2345C31.5509 17.8992 31.5909 17.571 31.6228 17.2501C32.6563 17.8835 32.9439 18.4505 31.7365 18.9224L28.0768 18.3717L24.2207 17.7915L20.7742 17.2729C20.7629 17.2712 20.7514 17.2704 20.74 17.2706L11.1876 17.4091C11.1617 17.4094 11.1351 17.4047 11.1108 17.3957C8.58304 16.4597 8.40651 16.329 8.26339 16.0891L9.15475 16.384Z" fill="#070D7E"/>
<path d="M12.9476 14.1168C13.0091 13.9242 13.0744 13.7348 13.1434 13.5484C17.0442 3.00846 32.668 2.47621 31.6726 16.6661C29.7134 16.0462 29.0588 16.233 29.1221 18.0555L24.3213 17.2605C24.5851 16.6323 24.6374 16.1185 24.5119 15.5011C24.5004 15.4448 24.465 15.3962 24.4153 15.3676C23.4831 14.8318 22.7062 14.7893 21.3459 14.7939C21.2718 14.7941 21.2028 14.8336 21.1663 14.8982C20.8021 15.5433 20.7208 15.9526 20.8532 16.6862C18.7669 16.2632 17.1343 15.9145 15.9069 15.6071C16.058 15.1233 16.091 14.823 16.0698 14.3128C16.067 14.2472 16.0329 14.1865 15.9778 14.1508C15.3237 13.7268 14.8513 13.6634 14.0509 13.6901C13.9699 13.6928 13.8974 13.7427 13.8671 13.8179C13.7178 14.1886 13.6592 14.4451 13.6861 14.9191C13.0693 14.6487 12.8408 14.3934 12.9476 14.1168Z" fill="#004CFF"/>
<path d="M13.1434 13.5484C13.0744 13.7348 13.0091 13.9242 12.9476 14.1168C12.8408 14.3934 13.0693 14.6487 13.6861 14.9191C14.1743 15.133 14.9058 15.3564 15.9069 15.6071C17.1343 15.9145 18.7669 16.2632 20.8532 16.6862L11.2331 16.9626L9.15475 16.384L8.26339 16.0891C7.11299 15.6658 7.01921 15.3918 7.49335 15.0787C9.85342 14.6837 11.3395 14.6777 13.1434 13.5484Z" fill="#070D7E"/>
<path d="M15.9778 14.1508C16.0329 14.1865 16.067 14.2472 16.0698 14.3128C16.091 14.823 16.058 15.1233 15.9069 15.6071C14.9058 15.3564 14.1743 15.133 13.6861 14.9191C13.6592 14.4451 13.7178 14.1886 13.8671 13.8179C13.8974 13.7427 13.9699 13.6928 14.0509 13.6901C14.8513 13.6634 15.3237 13.7268 15.9778 14.1508Z" fill="#ECA61B"/>
<path d="M24.3213 17.2605L20.8532 16.6862C20.7208 15.9526 20.8021 15.5433 21.1663 14.8982C21.2028 14.8336 21.2718 14.7941 21.3459 14.7939C22.7062 14.7893 23.4831 14.8318 24.4153 15.3676C24.465 15.3962 24.5004 15.4448 24.5119 15.5011C24.6374 16.1185 24.5851 16.6323 24.3213 17.2605Z" fill="#ECA61B"/>
<path d="M31.5023 18.2345C31.4855 18.3502 31.3767 18.4289 31.2614 18.4098L29.1221 18.0555C29.0588 16.233 29.7134 16.0462 31.6726 16.6661C31.6591 16.8581 31.6424 17.0527 31.6228 17.2501C31.5909 17.571 31.5509 17.8992 31.5023 18.2345Z" fill="#ECA61B"/>
<path d="M28.0768 18.3717L30.1453 20.4861C30.1897 20.5315 30.2113 20.5954 30.2031 20.6584C30.0112 22.1456 29.6108 22.5971 28.3026 22.4352C28.252 22.4289 28.205 22.4035 28.1717 22.3649L24.2207 17.7915L28.0768 18.3717Z" fill="#004CFF"/>
<path d="M13.1434 13.5484C13.0744 13.7348 13.0091 13.9242 12.9476 14.1168C12.8408 14.3934 13.0693 14.6487 13.6861 14.9191M13.1434 13.5484C11.3395 14.6777 9.85342 14.6837 7.49335 15.0787M13.1434 13.5484C17.0442 3.00846 32.668 2.47621 31.6726 16.6661M7.49335 15.0787C6.91746 15.459 7.1794 15.7815 9.15475 16.384M7.49335 15.0787C7.01921 15.3918 7.11299 15.6658 8.26339 16.0891M11.2331 16.9626L20.8532 16.6862M11.2331 16.9626C10.3936 16.7429 9.70715 16.5525 9.15475 16.384M11.2331 16.9626L9.15475 16.384M20.8532 16.6862L29.1221 18.0555M20.8532 16.6862C20.7208 15.9526 20.8021 15.5433 21.1663 14.8982C21.2028 14.8336 21.2718 14.7941 21.3459 14.7939C22.7062 14.7893 23.4831 14.8318 24.4153 15.3676C24.465 15.3962 24.5004 15.4448 24.5119 15.5011C24.6374 16.1185 24.5851 16.6323 24.3213 17.2605M20.8532 16.6862C18.7669 16.2632 17.1343 15.9145 15.9069 15.6071M20.8532 16.6862L24.3213 17.2605M31.6228 17.2501C31.5909 17.571 31.5509 17.8992 31.5023 18.2345C31.4855 18.3502 31.3767 18.4289 31.2614 18.4098L29.1221 18.0555M31.6228 17.2501C32.6563 17.8835 32.9439 18.4505 31.7365 18.9224M31.6228 17.2501C31.6424 17.0527 31.6591 16.8581 31.6726 16.6661M31.7365 18.9224L24.2207 17.7915M31.7365 18.9224L28.0768 18.3717M8.26339 16.0891C8.40651 16.329 8.58304 16.4597 11.1108 17.3957C11.1351 17.4047 11.1617 17.4094 11.1876 17.4091L20.74 17.2706C20.7514 17.2704 20.7629 17.2712 20.7742 17.2729L24.2207 17.7915M8.26339 16.0891L9.15475 16.384M28.0768 18.3717L30.1453 20.4861C30.1897 20.5315 30.2113 20.5954 30.2031 20.6584C30.0112 22.1456 29.6108 22.5971 28.3026 22.4352C28.252 22.4289 28.205 22.4035 28.1717 22.3649L24.2207 17.7915M28.0768 18.3717L24.2207 17.7915M31.6726 16.6661C29.7134 16.0462 29.0588 16.233 29.1221 18.0555M29.1221 18.0555L24.3213 17.2605M15.9069 15.6071C16.058 15.1233 16.091 14.823 16.0698 14.3128C16.067 14.2472 16.0329 14.1865 15.9778 14.1508C15.3237 13.7268 14.8513 13.6634 14.0509 13.6901C13.9699 13.6928 13.8974 13.7427 13.8671 13.8179C13.7178 14.1886 13.6592 14.4451 13.6861 14.9191M15.9069 15.6071C14.9058 15.3564 14.1743 15.133 13.6861 14.9191M29.6595 10.0153C27.2902 7.03737 22.5511 6.10414 18.8887 7.76153" stroke="white" stroke-width="0.35" stroke-linecap="round"/>
</svg>
