<svg width="64" height="64" viewBox="0 0 64 64" fill="none" xmlns="http://www.w3.org/2000/svg">
<rect width="64" height="64" rx="32" fill="#212121"/>
<path d="M30.7054 54.8998C28.3316 54.8998 25.9366 54.6667 23.5204 54.2004C21.1465 53.6917 18.9423 52.9711 16.9076 52.0385C14.9153 51.0635 13.3045 49.8978 12.0752 48.5414C10.8458 47.1425 10.2312 45.5317 10.2312 43.7089C10.2312 41.3775 10.973 39.5123 12.4567 38.1135C13.9403 36.7146 15.6783 36.0576 17.6706 36.1424C19.239 36.1848 20.8074 36.5239 22.3759 37.1597C23.9443 37.7532 25.5339 38.3466 27.1447 38.9401C28.7979 39.5335 30.4511 39.8303 32.1043 39.8303C33.7575 39.8303 34.902 39.6183 35.5379 39.1944C36.1737 38.7705 36.4916 38.1983 36.4916 37.4776C36.4916 36.6298 36.0465 35.9304 35.1563 35.3793C34.2662 34.8283 33.1428 34.4044 31.7864 34.1077L28.6707 33.3446C25.4491 32.5816 22.5666 31.7338 20.0232 30.8013C17.4798 29.8263 15.4663 28.5546 13.9827 26.9862C12.5414 25.3754 11.8208 23.2347 11.8208 20.5641C11.8208 17.6393 12.6262 15.2654 14.237 13.4427C15.8478 11.5775 18.0309 10.221 20.7862 9.37325C23.5416 8.52546 26.6148 8.10156 30.006 8.10156C33.482 8.10156 36.534 8.46188 39.1622 9.1825C41.7904 9.90313 45.6054 12.0862 47.0467 13.4427C48.827 21.7087 58 18.6142 58 20.5641C58 22.6412 54.1445 24.5912 53 25.7781C51.8979 26.9226 43.1892 23.8705 41.3241 23.8705C40.0948 23.8705 38.8019 23.6586 37.4454 23.2347C36.1313 22.8108 34.7325 22.4081 33.2488 22.0266C31.8076 21.6027 30.2604 21.3907 28.6072 21.3907C27.1235 21.3907 26.0002 21.6239 25.2372 22.0902C24.4741 22.5141 24.0926 23.0863 24.0926 23.807C24.0926 24.6971 24.6013 25.3542 25.6187 25.7781C26.636 26.202 28.3104 26.7106 30.6419 27.3041L34.2026 28.1307C37.1275 28.8513 39.6921 29.7203 41.8963 30.7377C44.1006 31.755 45.8174 33.0903 47.0467 34.7435C48.276 36.3967 48.8906 38.5586 48.8906 41.2291C48.8906 44.4507 48.1276 47.0789 46.6016 49.1136C45.0755 51.1059 42.956 52.5684 40.2431 53.501C37.5302 54.4335 34.3509 54.8998 30.7054 54.8998Z" fill="#ECA61B"/>
<mask id="path-3-inside-1_2056_2191" fill="white">
<path d="M30.6914 6C34.3732 6.00003 37.6482 6.38724 40.5 7.18066C43.3395 7.97076 45.6423 9.136 47.3203 10.7334L47.5176 10.9219C47.98 11.3765 48.4513 11.9287 48.8916 12.5264C49.491 13.3401 49.8432 14.1736 49.8545 15.0459C49.8571 15.2519 49.838 15.4507 49.8057 15.6416C50.0826 16.5869 50.5098 17.2718 51.0234 17.7734C51.5808 18.3176 52.2666 18.6741 53.0342 18.9014C54.5948 19.3633 56.4084 19.2699 57.9961 19.1846C58.4337 19.1611 58.8765 19.3047 59.1953 19.5947C59.5293 19.8991 59.7208 20.3682 59.5879 20.8906C59.2132 22.3601 57.7605 23.7621 54.6123 24.292C54.4734 24.7477 54.4518 25.0103 54.4834 25.1797C54.5112 25.3273 54.5913 25.4744 54.8711 25.6787C55.106 25.8504 55.255 26.1152 55.2783 26.3984C55.3024 26.6946 55.1847 27.0184 54.8906 27.2217C53.8209 27.9598 52.4829 28.0191 50.7812 27.6562C49.0807 27.2936 46.8846 26.4798 43.9922 25.3076L43.9961 25.2959C43.8197 25.3065 43.6477 25.3059 43.4902 25.2998C42.4438 25.259 40.7387 24.9451 38.1045 24.2764L38.0654 24.2666L38.0264 24.2539C36.6904 23.8166 35.264 23.3995 33.748 23.0039L33.7285 22.999L33.708 22.9932C32.3365 22.5839 30.8492 22.375 29.2412 22.375C27.7975 22.3751 26.8958 22.6111 26.3818 22.9297L26.3604 22.9434L26.3389 22.9551C25.8376 23.2378 25.7638 23.4843 25.7637 23.7158C25.7638 23.9419 25.8219 24.0884 25.9131 24.208C26.016 24.3429 26.2189 24.5162 26.6123 24.6826C27.5758 25.09 29.2291 25.6053 31.624 26.2246H31.625L35.3145 27.0938L35.3223 27.0957L35.3311 27.0977C38.4194 27.8699 41.1525 28.8079 43.5205 29.917C45.9555 31.0575 47.9049 32.5806 49.3164 34.5068C50.7809 36.5055 51.4599 39.0502 51.46 42.0361C51.4599 45.6096 50.6234 48.6437 48.8525 51.04L48.8457 51.0498C47.1031 53.3585 44.698 55.0253 41.6943 56.0732C38.7274 57.1082 35.2933 57.6113 31.416 57.6113C28.8762 57.6113 26.3168 57.3581 23.7402 56.8535L23.7275 56.8516L23.7158 56.8486C21.1767 56.2964 18.8072 55.5111 16.6123 54.4902L16.5986 54.4844L16.585 54.4775C14.4112 53.398 12.6099 52.0855 11.2158 50.5244L11.2041 50.5107C9.74481 48.8254 9.00002 46.8534 9 44.6436C9.00001 43.407 9.02747 41.0027 9.25293 38.709C9.36539 37.565 9.53022 36.4119 9.77734 35.4307C10.0073 34.5179 10.3657 33.5019 11.0176 32.8779C11.5678 32.3516 12.238 32.0102 13.0234 32.0479C13.7441 32.0826 14.3527 32.4314 14.8242 32.7764C15.3037 33.1273 15.7972 33.594 16.2773 34.0518C16.7762 34.5274 17.2979 35.0301 17.8955 35.5381C20.0193 37.3432 22.1942 38.2763 23.2344 38.6758C24.8998 39.3153 26.2535 39.89 28.0166 40.2988C29.666 40.6812 30.9989 40.6566 31.9004 40.5449C32.3513 40.489 32.6961 40.4108 32.918 40.3506C33.0284 40.3206 33.1096 40.2945 33.1572 40.2783C33.1635 40.2762 33.1697 40.2733 33.1748 40.2715C33.1848 40.2666 33.1974 40.261 33.21 40.2549C33.2677 40.2264 33.352 40.1847 33.4541 40.1338C33.6596 40.0314 33.9408 39.8904 34.2402 39.7363C34.8686 39.4131 35.4929 39.0769 35.751 38.9023C36.0992 38.6667 36.2119 38.4271 36.2119 38.0908C36.2118 37.708 36.0518 37.3164 35.3896 36.9004C34.6142 36.4133 33.5873 36.01 32.2754 35.7188L32.2607 35.7158L32.2461 35.7119L29.0176 34.9092V34.9082C25.6465 34.0976 22.6151 33.1949 19.9287 32.1953L19.9199 32.1914L19.9121 32.1885C17.1503 31.114 14.8975 29.6873 13.21 27.877L13.1982 27.8643L13.1875 27.8525C11.4573 25.8899 10.6475 23.3319 10.6475 20.3057C10.6475 17.2107 11.4394 14.5588 13.1016 12.4443L13.4463 12.0283C15.2837 9.87392 17.7489 8.33798 20.7793 7.3916C23.7682 6.45836 27.077 6.00004 30.6914 6ZM30.6914 7.2002C27.1779 7.20023 23.9925 7.64576 21.1377 8.53711L20.6094 8.71094C18.0026 9.60929 15.9163 10.9781 14.3516 12.8164L14.0479 13.1826C12.581 15.0474 11.8477 17.4224 11.8477 20.3057L11.8564 20.8252C11.9439 23.3925 12.688 25.4706 14.0879 27.0586C15.6251 28.7077 17.7116 30.0452 20.3467 31.0703C22.982 32.0509 25.9695 32.9428 29.3076 33.7451L32.5361 34.5469C33.9414 34.8589 35.106 35.3054 36.0283 35.8848C36.9502 36.4641 37.4109 37.1997 37.4111 38.0908C37.4111 38.8485 37.0815 39.4508 36.4229 39.8965L36.1152 40.0879C35.2773 40.5796 33.6806 41.3612 33.6484 41.377C33.6155 41.3901 31.4648 42.2412 28.0791 41.541L27.7451 41.4678C25.8797 41.0352 24.4287 40.4199 22.8037 39.7959C21.7717 39.3996 19.6724 38.5037 17.5439 36.8037L17.1182 36.4531C14.6012 34.3138 13.3848 32.2748 11.8477 33.7451L11.707 33.8984C10.3032 35.6477 10.2002 42.2683 10.2002 44.6436L10.208 45C10.2826 46.7707 10.9173 48.3456 12.1113 49.7246C13.385 51.1509 15.054 52.3772 17.1182 53.4023C19.2264 54.3829 21.5111 55.1409 23.9707 55.6758C26.1612 56.1048 28.3353 56.3458 30.4922 56.3994L31.416 56.4111C34.957 56.4111 38.0738 55.9799 40.7656 55.1182L41.2988 54.9404C43.9342 54.0211 46.0295 52.6116 47.584 50.7129L47.8877 50.3271C49.3699 48.3214 50.1573 45.7666 50.25 42.6641L50.2598 42.0361C50.2597 39.4035 49.6996 37.2402 48.5801 35.5479L48.3486 35.2158C47.1545 33.5863 45.5164 32.25 43.4346 31.208L43.0117 31.0039C40.7278 29.9342 38.0705 29.0194 35.04 28.2617L31.3496 27.3926C28.9342 26.7686 27.1986 26.2338 26.1445 25.7881C25.1565 25.3701 24.631 24.7365 24.5693 23.8877L24.5635 23.7158C24.5636 23.0058 24.911 22.4312 25.6055 21.9951L25.75 21.9102C26.5405 21.4202 27.7046 21.1749 29.2412 21.1748L29.8789 21.1846C31.3536 21.2333 32.7452 21.4528 34.0518 21.8428C35.5887 22.2438 37.0381 22.6677 38.3994 23.1133C48.934 25.7878 42.8636 22.3011 42.5703 21.4082C41.7475 18.9022 43.899 20.9402 45.041 19.7373C47.3088 17.3508 49.7818 16.0564 48.1016 13.4902L47.9258 13.2383C47.4576 12.6027 46.9625 12.0388 46.5039 11.6133C45.1039 10.2762 43.1633 9.23194 40.6826 8.48242L40.1787 8.33691C37.6258 7.6266 34.6863 7.24949 31.3613 7.20508L30.6914 7.2002ZM14.2539 41.6641C14.4996 41.5103 14.8144 41.5568 15.0068 41.7588L15.0811 41.8545L15.3506 42.2783C15.975 43.2393 16.5612 44.0072 17.1484 44.6113C18.0139 45.5017 18.8814 46.034 19.8877 46.2998C20.9069 46.5688 22.1169 46.5779 23.6855 46.3418L23.8076 46.335C24.0861 46.3497 24.3249 46.5592 24.3682 46.8457C24.4173 47.1733 24.1918 47.479 23.8643 47.5283L23.2568 47.6104C21.8675 47.7744 20.6658 47.7463 19.5811 47.46C18.8446 47.2654 18.1774 46.9553 17.5518 46.5264C17.7971 47.4747 18.2089 48.2386 18.7354 48.8486C19.5238 49.762 20.6049 50.3741 21.8682 50.7295C24.413 51.4451 27.6117 51.0922 30.2734 50.1768C30.5866 50.0691 30.9282 50.2358 31.0361 50.5488C31.1439 50.862 30.9771 51.2036 30.6641 51.3115C27.8558 52.2774 24.396 52.6871 21.543 51.8848C20.1078 51.481 18.8028 50.7629 17.8271 49.6328C16.8854 48.5417 16.2838 47.103 16.1357 45.2852C15.5311 44.6367 14.9436 43.854 14.3438 42.9307L14.0635 42.4912L14.0098 42.3818C13.9127 42.1208 14.0088 41.8179 14.2539 41.6641ZM45.3447 22.6006C45.47 22.7708 45.5923 22.9693 45.6719 23.1865C45.7517 23.4047 45.83 23.7498 45.7217 24.1406C45.6707 24.3241 45.5865 24.4813 45.4863 24.6152C47.8586 25.5575 49.6447 26.1867 51.0312 26.4824C52.3723 26.7684 53.2451 26.7187 53.8848 26.418C53.5961 26.1482 53.383 25.8233 53.3037 25.4004C53.2477 25.1011 53.2656 24.7843 53.332 24.4492C52.8033 24.4927 52.2356 24.517 51.6279 24.5156C51.0196 24.5141 50.3097 24.3701 49.5781 24.1621C48.8392 23.952 48.0398 23.6656 47.2422 23.3584C46.5948 23.1091 45.956 22.8489 45.3447 22.6006ZM49.1006 17.2764C48.6836 17.8736 48.1254 18.4266 47.5889 18.9365C47.0258 19.4716 46.4671 19.9765 45.9102 20.5625L45.9111 20.5635C45.6281 20.8615 45.3142 21.0516 45.0039 21.1709C45.8687 21.5172 46.796 21.9002 47.6738 22.2383C48.4582 22.5404 49.2185 22.8122 49.9062 23.0078C50.6013 23.2055 51.1868 23.3153 51.6309 23.3164C56.7184 23.3281 58.1598 21.6377 58.4258 20.5947C58.4343 20.5612 58.4301 20.5444 58.4277 20.5371C58.4243 20.5271 58.4144 20.5068 58.3877 20.4824C58.3275 20.4278 58.2073 20.375 58.0605 20.3828C56.5164 20.4658 54.4876 20.5838 52.6934 20.0527C51.7838 19.7834 50.9128 19.3418 50.1855 18.6318C49.7809 18.2367 49.4313 17.7648 49.1436 17.21C49.1289 17.2316 49.1155 17.255 49.1006 17.2764ZM47.4316 19.4268C47.5988 19.1854 48.0434 19.2038 48.4248 19.4678C48.8062 19.7318 48.9804 20.1414 48.8135 20.3828C48.6464 20.6242 48.2017 20.6057 47.8203 20.3418C47.439 20.0778 47.2648 19.6682 47.4316 19.4268ZM40.1709 11.9746C41.8507 12.0598 43.1865 13.4494 43.1865 15.1504L43.1826 15.3135C43.0975 16.9931 41.7086 18.3288 40.0078 18.3291L39.8438 18.3252C38.2181 18.2428 36.9144 16.9391 36.832 15.3135L36.8281 15.1504C36.8281 13.3946 38.252 11.9707 40.0078 11.9707L40.1709 11.9746ZM40.0078 13.1709C38.9147 13.1709 38.0283 14.0573 38.0283 15.1504C38.0286 16.2433 38.9149 17.1289 40.0078 17.1289C41.1005 17.1286 41.9861 16.2431 41.9863 15.1504C41.9863 14.0575 41.1007 13.1712 40.0078 13.1709ZM40.8027 13.5605C41.2416 13.5607 41.5977 13.9166 41.5977 14.3555C41.5975 14.7942 41.2415 15.1502 40.8027 15.1504C40.3639 15.1504 40.008 14.7943 40.0078 14.3555C40.0078 13.9165 40.3638 13.5605 40.8027 13.5605Z"/>
</mask>
<path d="M30.6914 6L30.6914 4.8L30.6914 4.8L30.6914 6ZM40.5 7.18066L40.8217 6.02458L40.8216 6.02457L40.5 7.18066ZM47.3203 10.7334L48.1493 9.86576L48.1477 9.86426L47.3203 10.7334ZM47.5176 10.9219L48.3589 10.0662L48.3528 10.0602L48.3466 10.0542L47.5176 10.9219ZM48.8916 12.5264L49.8578 11.8147L49.8577 11.8146L48.8916 12.5264ZM49.8545 15.0459L51.0544 15.0307L51.0544 15.0304L49.8545 15.0459ZM49.8057 15.6416L48.6225 15.4411L48.5763 15.7137L48.6541 15.979L49.8057 15.6416ZM51.0234 17.7734L50.185 18.6319L50.1852 18.6321L51.0234 17.7734ZM53.0342 18.9014L52.6935 20.052L52.6936 20.052L53.0342 18.9014ZM57.9961 19.1846L57.9318 17.9863L57.9317 17.9863L57.9961 19.1846ZM59.1953 19.5947L60.0035 18.7077L60.0029 18.7072L59.1953 19.5947ZM59.5879 20.8906L60.7507 21.1871L60.7509 21.1864L59.5879 20.8906ZM54.6123 24.292L54.4131 23.1086L53.6808 23.2319L53.4644 23.9422L54.6123 24.292ZM54.4834 25.1797L53.3037 25.3997L53.3041 25.4014L54.4834 25.1797ZM54.8711 25.6787L55.5791 24.7098L55.5788 24.7096L54.8711 25.6787ZM55.2783 26.3984L56.4744 26.3013L56.4743 26.3001L55.2783 26.3984ZM54.8906 27.2217L55.5722 28.2094L55.5729 28.2089L54.8906 27.2217ZM50.7812 27.6562L50.5309 28.8299L50.531 28.8299L50.7812 27.6562ZM43.9922 25.3076L42.8538 24.9281L42.4976 25.9967L43.5415 26.4198L43.9922 25.3076ZM43.9961 25.2959L45.1345 25.6754L45.6959 23.9913L43.9239 24.0981L43.9961 25.2959ZM43.4902 25.2998L43.4435 26.4989L43.4436 26.4989L43.4902 25.2998ZM38.1045 24.2764L38.3998 23.1133L38.3955 23.1122L38.1045 24.2764ZM38.0654 24.2666L37.6945 25.4078L37.7341 25.4207L37.7744 25.4308L38.0654 24.2666ZM38.0264 24.2539L37.653 25.3944L37.6555 25.3951L38.0264 24.2539ZM33.748 23.0039L34.0511 21.8427L34.0391 21.8397L33.748 23.0039ZM33.7285 22.999L33.3989 24.1529L33.4181 24.1583L33.4375 24.1632L33.7285 22.999ZM33.708 22.9932L33.3648 24.1431L33.3783 24.147L33.708 22.9932ZM29.2412 22.375L29.2412 21.175L29.2411 21.175L29.2412 22.375ZM26.3818 22.9297L25.7496 21.9098L25.7436 21.9135L25.7376 21.9173L26.3818 22.9297ZM26.3604 22.9434L26.935 23.9968L26.9705 23.9775L27.0046 23.9558L26.3604 22.9434ZM26.3389 22.9551L25.7642 21.9016L25.7568 21.9057L25.7494 21.9098L26.3389 22.9551ZM25.7637 23.7158L24.5637 23.7153L24.5637 23.7162L25.7637 23.7158ZM25.9131 24.208L24.9585 24.9352L24.9593 24.9362L25.9131 24.208ZM26.6123 24.6826L26.1448 25.7878L26.145 25.7879L26.6123 24.6826ZM31.624 26.2246L31.3236 27.3864L31.4714 27.4246H31.624V26.2246ZM31.625 26.2246L31.9002 25.0566L31.7644 25.0246H31.625V26.2246ZM35.3145 27.0938L35.6055 25.9296L35.5976 25.9276L35.5896 25.9257L35.3145 27.0938ZM35.3223 27.0957L35.0312 28.2599L35.0465 28.2637L35.0619 28.2671L35.3223 27.0957ZM35.3311 27.0977L35.6221 25.9335L35.6068 25.9297L35.5914 25.9262L35.3311 27.0977ZM43.5205 29.917L44.0295 28.8303L44.0295 28.8303L43.5205 29.917ZM49.3164 34.5068L50.2844 33.7976L50.2843 33.7975L49.3164 34.5068ZM51.46 42.0361L52.66 42.0361L52.66 42.0361L51.46 42.0361ZM48.8525 51.04L47.8875 50.3269L47.8783 50.3393L47.8695 50.3519L48.8525 51.04ZM48.8457 51.0498L49.8035 51.7727L49.8164 51.7556L49.8288 51.738L48.8457 51.0498ZM41.6943 56.0732L42.0896 57.2063L42.0896 57.2063L41.6943 56.0732ZM31.416 57.6113L31.416 58.8113L31.416 58.8113L31.416 57.6113ZM23.7402 56.8535L23.9709 55.6759L23.9469 55.6712L23.9227 55.6675L23.7402 56.8535ZM23.7275 56.8516L23.4365 58.0157L23.4903 58.0292L23.5451 58.0376L23.7275 56.8516ZM23.7158 56.8486L24.0069 55.6845L23.9889 55.68L23.9708 55.676L23.7158 56.8486ZM16.6123 54.4902L17.1184 53.4022L17.1018 53.3945L17.085 53.3873L16.6123 54.4902ZM16.5986 54.4844L16.062 55.5577L16.0935 55.5735L16.1259 55.5873L16.5986 54.4844ZM16.585 54.4775L17.1216 53.4042L17.1187 53.4028L16.585 54.4775ZM11.2158 50.5244L10.3047 51.3054L10.3126 51.3146L10.3208 51.3237L11.2158 50.5244ZM11.2041 50.5107L12.1152 49.7298L12.1113 49.7252L11.2041 50.5107ZM9 44.6436L7.8 44.6435L7.8 44.6436L9 44.6436ZM9.25293 38.709L8.05869 38.5916L8.05868 38.5916L9.25293 38.709ZM9.77734 35.4307L8.6137 35.1375L8.61368 35.1376L9.77734 35.4307ZM11.0176 32.8779L10.1881 32.0108L10.1878 32.0111L11.0176 32.8779ZM13.0234 32.0479L13.0813 30.8492L13.0808 30.8492L13.0234 32.0479ZM14.8242 32.7764L15.5329 31.808L15.5328 31.8079L14.8242 32.7764ZM16.2773 34.0518L17.1054 33.1832L17.1054 33.1832L16.2773 34.0518ZM17.8955 35.5381L17.1183 36.4524L17.1184 36.4524L17.8955 35.5381ZM23.2344 38.6758L22.8042 39.796L22.8042 39.796L23.2344 38.6758ZM28.0166 40.2988L27.7455 41.4678L27.7456 41.4678L28.0166 40.2988ZM31.9004 40.5449L32.0479 41.7358L32.0481 41.7358L31.9004 40.5449ZM32.918 40.3506L33.2322 41.5087L33.2324 41.5086L32.918 40.3506ZM33.1572 40.2783L33.5424 41.4148L33.5461 41.4136L33.1572 40.2783ZM33.1748 40.2715L33.5766 41.4022L33.6416 41.3791L33.7036 41.3487L33.1748 40.2715ZM33.21 40.2549L33.7398 41.3316L33.7407 41.3311L33.21 40.2549ZM33.4541 40.1338L33.9893 41.2078L33.9893 41.2078L33.4541 40.1338ZM34.2402 39.7363L34.7891 40.8035L34.7891 40.8035L34.2402 39.7363ZM35.751 38.9023L36.4232 39.8964L36.4236 39.8961L35.751 38.9023ZM36.2119 38.0908L37.4119 38.0908L37.4119 38.0903L36.2119 38.0908ZM35.3896 36.9004L36.028 35.8843L36.0279 35.8842L35.3896 36.9004ZM32.2754 35.7188L32.5355 34.5473L32.5231 34.5445L32.5107 34.5421L32.2754 35.7188ZM32.2607 35.7158L31.9515 36.8753L31.9882 36.8851L32.0254 36.8925L32.2607 35.7158ZM32.2461 35.7119L32.5553 34.5524L32.5455 34.5498L32.5356 34.5474L32.2461 35.7119ZM29.0176 34.9092H27.8176V35.8473L28.728 36.0737L29.0176 34.9092ZM29.0176 34.9082H30.2176V33.9625L29.2981 33.7415L29.0176 34.9082ZM19.9287 32.1953L19.4413 33.2919L19.4754 33.307L19.5102 33.32L19.9287 32.1953ZM19.9199 32.1914L20.4073 31.0948L20.3747 31.0803L20.3413 31.0678L19.9199 32.1914ZM19.9121 32.1885L19.477 33.3068L19.4839 33.3095L19.4908 33.3121L19.9121 32.1885ZM13.21 27.877L12.3282 28.6909L12.3322 28.6952L13.21 27.877ZM13.1982 27.8643L12.3137 28.6751L12.3165 28.6782L13.1982 27.8643ZM13.1875 27.8525L12.2873 28.6461L12.295 28.6548L12.3029 28.6634L13.1875 27.8525ZM10.6475 20.3057L9.44746 20.3056L9.44746 20.3057L10.6475 20.3057ZM13.1016 12.4443L12.1776 11.6787L12.1677 11.6906L12.1582 11.7027L13.1016 12.4443ZM13.4463 12.0283L12.5332 11.2496L12.5277 11.2561L12.5223 11.2627L13.4463 12.0283ZM20.7793 7.3916L20.4216 6.24614L20.4216 6.24616L20.7793 7.3916ZM30.6914 7.2002L30.7002 6.0002L30.6914 6.0002L30.6914 7.2002ZM21.1377 8.53711L20.7801 7.39164L20.7713 7.39437L20.7626 7.39722L21.1377 8.53711ZM20.6094 8.71094L20.2343 7.57105L20.2263 7.57368L20.2184 7.57642L20.6094 8.71094ZM14.3516 12.8164L13.4378 12.0386L13.4328 12.0445L13.4279 12.0504L14.3516 12.8164ZM14.0479 13.1826L13.1242 12.4166L13.1143 12.4285L13.1047 12.4407L14.0479 13.1826ZM11.8477 20.3057L10.6477 20.3056L10.6477 20.3158L10.6478 20.326L11.8477 20.3057ZM11.8564 20.8252L10.6566 20.8455L10.6568 20.8558L10.6571 20.8661L11.8564 20.8252ZM14.0879 27.0586L13.1877 27.8521L13.1988 27.8646L13.2101 27.8768L14.0879 27.0586ZM20.3467 31.0703L19.9116 32.1887L19.9199 32.1919L19.9282 32.195L20.3467 31.0703ZM29.3076 33.7451L29.5968 32.5805L29.5881 32.5783L29.3076 33.7451ZM32.5361 34.5469L32.2469 35.7115L32.2614 35.7151L32.2761 35.7184L32.5361 34.5469ZM36.0283 35.8848L36.6668 34.8687L36.6666 34.8686L36.0283 35.8848ZM37.4111 38.0908L38.6111 38.0908L38.6111 38.0906L37.4111 38.0908ZM36.4229 39.8965L37.0568 40.9154L37.0763 40.9032L37.0954 40.8903L36.4229 39.8965ZM36.1152 40.0879L36.7226 41.1229L36.736 41.115L36.7492 41.1068L36.1152 40.0879ZM33.6484 41.377L34.0935 42.4914L34.1354 42.4746L34.1758 42.4548L33.6484 41.377ZM28.0791 41.541L27.8221 42.7132L27.8291 42.7147L27.8361 42.7161L28.0791 41.541ZM27.7451 41.4678L27.474 42.6368L27.481 42.6384L27.4881 42.6399L27.7451 41.4678ZM22.8037 39.7959L22.3735 40.9161L22.3736 40.9162L22.8037 39.7959ZM17.5439 36.8037L16.7812 37.7301L16.7881 37.7358L16.7951 37.7414L17.5439 36.8037ZM17.1182 36.4531L16.341 37.3675L16.3481 37.3735L16.3554 37.3795L17.1182 36.4531ZM11.8477 33.7451L11.0182 32.878L10.9898 32.9051L10.9633 32.934L11.8477 33.7451ZM11.707 33.8984L10.8227 33.0873L10.7959 33.1165L10.7711 33.1474L11.707 33.8984ZM10.2002 44.6436L9.0002 44.6435L9.0002 44.6567L9.00048 44.6698L10.2002 44.6436ZM10.208 45L9.0083 45.0263L9.00856 45.0384L9.00907 45.0505L10.208 45ZM12.1113 49.7246L11.2041 50.5101L11.2101 50.517L11.2163 50.5239L12.1113 49.7246ZM17.1182 53.4023L16.5844 54.4771L16.5981 54.4839L16.6121 54.4904L17.1182 53.4023ZM23.9707 55.6758L23.7157 56.8484L23.7279 56.851L23.7401 56.8534L23.9707 55.6758ZM30.4922 56.3994L30.4623 57.599L30.4697 57.5992L30.477 57.5993L30.4922 56.3994ZM31.416 56.4111L31.4008 57.611L31.4084 57.6111L31.416 57.6111L31.416 56.4111ZM40.7656 55.1182L41.1315 56.261L41.1383 56.2588L41.1451 56.2566L40.7656 55.1182ZM41.2988 54.9404L41.6783 56.0788L41.6862 56.0762L41.6941 56.0735L41.2988 54.9404ZM47.584 50.7129L48.5125 51.4731L48.5197 51.4642L48.5268 51.4552L47.584 50.7129ZM47.8877 50.3271L48.8305 51.0695L48.8419 51.0551L48.8528 51.0403L47.8877 50.3271ZM50.25 42.6641L51.4495 42.6999L51.4497 42.6913L51.4499 42.6827L50.25 42.6641ZM50.2598 42.0361L51.4596 42.0548L51.4598 42.0454L51.4598 42.0361L50.2598 42.0361ZM48.5801 35.5479L49.5809 34.8858L49.5729 34.8736L49.5645 34.8616L48.5801 35.5479ZM48.3486 35.2158L49.3331 34.5296L49.325 34.518L49.3166 34.5065L48.3486 35.2158ZM43.4346 31.208L43.9717 30.1349L43.964 30.1311L43.9562 30.1273L43.4346 31.208ZM43.0117 31.0039L43.5334 29.9231L43.5207 29.9172L43.0117 31.0039ZM35.04 28.2617L35.3311 27.0976L35.3231 27.0956L35.3151 27.0937L35.04 28.2617ZM31.3496 27.3926L31.0495 28.5544L31.062 28.5577L31.0745 28.5606L31.3496 27.3926ZM26.1445 25.7881L25.677 26.8933L25.6772 26.8933L26.1445 25.7881ZM24.5693 23.8877L23.37 23.9286L23.3708 23.9516L23.3725 23.9746L24.5693 23.8877ZM24.5635 23.7158L23.3635 23.7156L23.3635 23.7361L23.3642 23.7567L24.5635 23.7158ZM25.6055 21.9951L24.9974 20.9606L24.9822 20.9695L24.9673 20.9789L25.6055 21.9951ZM25.75 21.9102L26.3581 22.9447L26.3703 22.9375L26.3822 22.9301L25.75 21.9102ZM29.2412 21.1748L29.2596 19.9749L29.2504 19.9748L29.2411 19.9748L29.2412 21.1748ZM29.8789 21.1846L29.9186 19.9852L29.9079 19.9849L29.8973 19.9847L29.8789 21.1846ZM34.0518 21.8428L33.7086 22.9927L33.7286 22.9986L33.7488 23.0039L34.0518 21.8428ZM38.3994 23.1133L38.0261 24.2537L38.0647 24.2664L38.1041 24.2764L38.3994 23.1133ZM42.5703 21.4082L41.4302 21.7826L41.4302 21.7827L42.5703 21.4082ZM45.041 19.7373L44.1711 18.9107L44.1707 18.9111L45.041 19.7373ZM48.1016 13.4902L49.1055 12.8329L49.0958 12.8181L49.0857 12.8036L48.1016 13.4902ZM47.9258 13.2383L48.9099 12.5517L48.9011 12.539L48.8919 12.5265L47.9258 13.2383ZM46.5039 11.6133L45.6751 12.4811L45.6814 12.4871L45.6877 12.493L46.5039 11.6133ZM40.6826 8.48242L41.0297 7.33371L41.0226 7.33157L41.0155 7.32953L40.6826 8.48242ZM40.1787 8.33691L40.5116 7.18396L40.5004 7.18083L40.1787 8.33691ZM31.3613 7.20508L31.3774 6.00516L31.3701 6.00511L31.3613 7.20508ZM14.2539 41.6641L13.6174 40.6468L13.6161 40.6476L14.2539 41.6641ZM15.0068 41.7588L15.9551 41.0234L15.9177 40.9751L15.8755 40.9309L15.0068 41.7588ZM15.0811 41.8545L16.0936 41.2105L16.0636 41.1633L16.0293 41.1191L15.0811 41.8545ZM15.3506 42.2783L14.338 42.9223L14.3443 42.9321L15.3506 42.2783ZM17.1484 44.6113L16.2879 45.4477L16.288 45.4478L17.1484 44.6113ZM19.8877 46.2998L19.5813 47.46L19.5815 47.4601L19.8877 46.2998ZM23.6855 46.3418L23.6185 45.1437L23.5624 45.1468L23.5069 45.1552L23.6855 46.3418ZM23.8076 46.335L23.871 45.1366L23.8057 45.1332L23.7405 45.1368L23.8076 46.335ZM24.3682 46.8457L25.5549 46.6676L25.5547 46.6665L24.3682 46.8457ZM23.8643 47.5283L24.0249 48.7175L24.0339 48.7163L24.043 48.7149L23.8643 47.5283ZM23.2568 47.6104L23.3976 48.8021L23.4075 48.8009L23.4174 48.7996L23.2568 47.6104ZM19.5811 47.46L19.2746 48.6202L19.2748 48.6202L19.5811 47.46ZM17.5518 46.5264L18.2304 45.5367L15.5874 43.7244L16.39 46.8269L17.5518 46.5264ZM18.7354 48.8486L17.8269 49.6326L17.827 49.6328L18.7354 48.8486ZM21.8682 50.7295L21.5432 51.8846L21.5433 51.8847L21.8682 50.7295ZM30.2734 50.1768L29.8834 49.0419L29.8832 49.042L30.2734 50.1768ZM31.0361 50.5488L32.1709 50.1585L32.1706 50.1577L31.0361 50.5488ZM30.6641 51.3115L31.0544 52.4463L31.0552 52.446L30.6641 51.3115ZM21.543 51.8848L21.218 53.0399L21.2181 53.04L21.543 51.8848ZM17.8271 49.6328L16.9187 50.4168L16.9188 50.417L17.8271 49.6328ZM16.1357 45.2852L17.3318 45.1878L17.2979 44.772L17.0134 44.4668L16.1357 45.2852ZM14.3438 42.9307L13.332 43.576L13.3374 43.5844L14.3438 42.9307ZM14.0635 42.4912L12.9863 43.0202L13.0158 43.0801L13.0517 43.1365L14.0635 42.4912ZM14.0098 42.3818L12.885 42.8001L12.906 42.8566L12.9326 42.9108L14.0098 42.3818ZM45.3447 22.6006L45.7963 21.4888L41.86 19.89L44.3782 23.3118L45.3447 22.6006ZM45.6719 23.1865L46.7987 22.774L46.7986 22.7736L45.6719 23.1865ZM45.7217 24.1406L46.8778 24.4621L46.8781 24.4613L45.7217 24.1406ZM45.4863 24.6152L44.5254 23.8965L43.5864 25.1518L45.0434 25.7305L45.4863 24.6152ZM51.0312 26.4824L50.7809 27.656L50.781 27.656L51.0312 26.4824ZM53.8848 26.418L54.3952 27.504L55.998 26.7506L54.7042 25.5413L53.8848 26.418ZM53.3037 25.4004L52.1242 25.6211L52.1242 25.6214L53.3037 25.4004ZM53.332 24.4492L54.5091 24.6825L54.8183 23.1228L53.2336 23.2533L53.332 24.4492ZM51.6279 24.5156L51.625 25.7156L51.6252 25.7156L51.6279 24.5156ZM49.5781 24.1621L49.2499 25.3163L49.2499 25.3164L49.5781 24.1621ZM47.2422 23.3584L46.8109 24.4782L46.8109 24.4782L47.2422 23.3584ZM49.1006 17.2764L50.0845 17.9634L50.0852 17.9623L49.1006 17.2764ZM47.5889 18.9365L48.4155 19.8064L48.4155 19.8064L47.5889 18.9365ZM45.9102 20.5625L45.0403 19.7359L44.2344 20.5838L45.0616 21.411L45.9102 20.5625ZM45.9111 20.5635L46.7814 21.3897L47.5865 20.5417L46.7597 19.7149L45.9111 20.5635ZM45.0039 21.1709L44.5734 20.0508L41.719 21.148L44.5578 22.2849L45.0039 21.1709ZM47.6738 22.2383L47.2425 23.3581L47.2425 23.3581L47.6738 22.2383ZM49.9062 23.0078L49.578 24.162L49.578 24.1621L49.9062 23.0078ZM51.6309 23.3164L51.6279 24.5164L51.6281 24.5164L51.6309 23.3164ZM58.4258 20.5947L59.5886 20.8912L59.5893 20.8885L58.4258 20.5947ZM58.4277 20.5371L59.5692 20.167L59.5666 20.1588L59.5638 20.1508L58.4277 20.5371ZM58.3877 20.4824L59.1976 19.5969L59.1939 19.5936L58.3877 20.4824ZM58.0605 20.3828L57.9965 19.1845L57.9961 19.1845L58.0605 20.3828ZM52.6934 20.0527L52.3527 21.2034L52.3528 21.2034L52.6934 20.0527ZM50.1855 18.6318L49.3472 19.4904L49.3473 19.4905L50.1855 18.6318ZM49.1436 17.21L50.2088 16.6575L49.2802 14.8667L48.1497 16.5375L49.1436 17.21ZM47.4316 19.4268L46.445 18.7437L46.4444 18.7446L47.4316 19.4268ZM48.4248 19.4678L49.1079 18.4811L49.1077 18.4811L48.4248 19.4678ZM48.8135 20.3828L49.8001 21.0659L49.8005 21.0653L48.8135 20.3828ZM47.8203 20.3418L47.1373 21.3284L47.1375 21.3286L47.8203 20.3418ZM40.1709 11.9746L40.2317 10.7761L40.2157 10.7753L40.1996 10.775L40.1709 11.9746ZM43.1865 15.1504L44.3862 15.1791L44.3865 15.1648L44.3865 15.1504L43.1865 15.1504ZM43.1826 15.3135L44.3811 15.3742L44.3819 15.3582L44.3823 15.3422L43.1826 15.3135ZM40.0078 18.3291L39.9792 19.5288L39.9936 19.5291L40.008 19.5291L40.0078 18.3291ZM39.8438 18.3252L39.783 19.5237L39.7991 19.5245L39.8152 19.5249L39.8438 18.3252ZM36.832 15.3135L35.6324 15.3422L35.6328 15.3582L35.6336 15.3742L36.832 15.3135ZM36.8281 15.1504L35.6281 15.1504L35.6281 15.1648L35.6285 15.1791L36.8281 15.1504ZM40.0078 11.9707L40.0365 10.771L40.0222 10.7707H40.0078V11.9707ZM40.0078 13.1709L40.0081 11.9709H40.0078V13.1709ZM38.0283 15.1504L36.8283 15.1504L36.8283 15.1507L38.0283 15.1504ZM40.0078 17.1289L40.0078 18.3289L40.0081 18.3289L40.0078 17.1289ZM41.9863 15.1504L43.1863 15.1507L43.1863 15.1504L41.9863 15.1504ZM40.8027 13.5605L40.8032 12.3605H40.8027V13.5605ZM41.5977 14.3555L42.7977 14.3559V14.3555H41.5977ZM40.8027 15.1504L40.8027 16.3504L40.8032 16.3504L40.8027 15.1504ZM40.0078 14.3555L38.8078 14.3555L38.8078 14.3559L40.0078 14.3555ZM30.6914 6L30.6914 7.2C34.2926 7.20003 37.4553 7.57915 40.1784 8.33675L40.5 7.18066L40.8216 6.02457C37.8411 5.19534 34.4538 4.80004 30.6914 4.8L30.6914 6ZM40.5 7.18066L40.1783 8.33674C42.8947 9.09259 45.0002 10.1815 46.4929 11.6025L47.3203 10.7334L48.1477 9.86426C46.2845 8.0905 43.7842 6.84893 40.8217 6.02458L40.5 7.18066ZM47.3203 10.7334L46.4913 11.601L46.6886 11.7895L47.5176 10.9219L48.3466 10.0542L48.1493 9.86576L47.3203 10.7334ZM47.5176 10.9219L46.6763 11.7776C47.086 12.1804 47.5163 12.6827 47.9255 13.2381L48.8916 12.5264L49.8577 11.8146C49.3863 11.1747 48.8739 10.5725 48.3589 10.0662L47.5176 10.9219ZM48.8916 12.5264L47.9254 13.2381C48.4297 13.9226 48.6476 14.5171 48.6546 15.0614L49.8545 15.0459L51.0544 15.0304C51.0389 13.83 50.5524 12.7577 49.8578 11.8147L48.8916 12.5264ZM49.8545 15.0459L48.6546 15.0611C48.6561 15.183 48.645 15.3088 48.6225 15.4411L49.8057 15.6416L50.9888 15.8421C51.0311 15.5926 51.0581 15.3207 51.0544 15.0307L49.8545 15.0459ZM49.8057 15.6416L48.6541 15.979C48.983 17.1016 49.5095 17.9722 50.185 18.6319L51.0234 17.7734L51.8619 16.9149C51.5101 16.5714 51.1823 16.0722 50.9573 15.3042L49.8057 15.6416ZM51.0234 17.7734L50.1852 18.6321C50.9127 19.3423 51.7845 19.7828 52.6935 20.052L53.0342 18.9014L53.3749 17.7507C52.7488 17.5654 52.2489 17.2928 51.8617 16.9148L51.0234 17.7734ZM53.0342 18.9014L52.6936 20.052C54.4882 20.5832 56.5175 20.4658 58.0605 20.3828L57.9961 19.1846L57.9317 17.9863C56.2994 18.0741 54.7014 18.1434 53.3748 17.7507L53.0342 18.9014ZM57.9961 19.1846L58.0604 20.3828C58.2077 20.3749 58.3278 20.4278 58.3877 20.4823L59.1953 19.5947L60.0029 18.7072C59.4253 18.1816 58.6598 17.9472 57.9318 17.9863L57.9961 19.1846ZM59.1953 19.5947L58.3871 20.4817C58.413 20.5053 58.4238 20.5268 58.4274 20.5378C58.4292 20.543 58.4301 20.5482 58.4304 20.5545C58.4306 20.5606 58.4303 20.5735 58.4249 20.5949L59.5879 20.8906L60.7509 21.1864C61.0056 20.1847 60.6254 19.2744 60.0035 18.7077L59.1953 19.5947ZM59.5879 20.8906L58.4251 20.5941C58.2121 21.4294 57.3002 22.6227 54.4131 23.1086L54.6123 24.292L54.8115 25.4753C58.2209 24.9015 60.2143 23.2909 60.7507 21.1871L59.5879 20.8906ZM54.6123 24.292L53.4644 23.9422C53.3105 24.4475 53.2177 24.9385 53.3037 25.3997L54.4834 25.1797L55.6631 24.9596C55.6766 25.0325 55.6662 25.0569 55.6738 24.999C55.6814 24.9408 55.7032 24.8289 55.7602 24.6417L54.6123 24.292ZM54.4834 25.1797L53.3041 25.4014C53.4068 25.9483 53.7328 26.3334 54.1634 26.6478L54.8711 25.6787L55.5788 24.7096C55.4993 24.6515 55.5147 24.6489 55.5547 24.7042C55.5769 24.7349 55.6018 24.7766 55.6234 24.8281C55.6449 24.8795 55.6566 24.9253 55.6627 24.958L54.4834 25.1797ZM54.8711 25.6787L54.1631 26.6476C54.1215 26.6172 54.0881 26.5667 54.0824 26.4968L55.2783 26.3984L56.4743 26.3001C56.4219 25.6636 56.0905 25.0835 55.5791 24.7098L54.8711 25.6787ZM55.2783 26.3984L54.0823 26.4956C54.0789 26.4541 54.0847 26.4085 54.1056 26.3611C54.1287 26.3088 54.1664 26.2635 54.2084 26.2345L54.8906 27.2217L55.5729 28.2089C56.2604 27.7337 56.5289 26.9729 56.4744 26.3013L55.2783 26.3984ZM54.8906 27.2217L54.2091 26.234C53.5448 26.6924 52.6138 26.8201 51.0315 26.4826L50.7812 27.6562L50.531 28.8299C52.352 29.2182 54.097 29.2273 55.5722 28.2094L54.8906 27.2217ZM50.7812 27.6562L51.0316 26.4826C49.4486 26.145 47.3453 25.3717 44.4429 24.1955L43.9922 25.3076L43.5415 26.4198C46.4239 27.5879 48.7127 28.4421 50.5309 28.8299L50.7812 27.6562ZM43.9922 25.3076L45.1306 25.6871L45.1345 25.6754L43.9961 25.2959L42.8577 24.9164L42.8538 24.9281L43.9922 25.3076ZM43.9961 25.2959L43.9239 24.0981C43.7958 24.1058 43.6645 24.1057 43.5368 24.1007L43.4902 25.2998L43.4436 26.4989C43.6308 26.5062 43.8436 26.5073 44.0683 26.4937L43.9961 25.2959ZM43.4902 25.2998L43.5369 24.1007C42.629 24.0653 41.0325 23.7817 38.3998 23.1133L38.1045 24.2764L37.8092 25.4395C40.4449 26.1086 42.2585 26.4527 43.4435 26.4989L43.4902 25.2998ZM38.1045 24.2764L38.3955 23.1122L38.3565 23.1024L38.0654 24.2666L37.7744 25.4308L37.8134 25.4405L38.1045 24.2764ZM38.0654 24.2666L38.4363 23.1254L38.3973 23.1127L38.0264 24.2539L37.6555 25.3951L37.6945 25.4078L38.0654 24.2666ZM38.0264 24.2539L38.3997 23.1135C37.0383 22.6678 35.5883 22.2439 34.051 21.8428L33.748 23.0039L33.4451 24.165C34.9398 24.5551 36.3426 24.9654 37.653 25.3944L38.0264 24.2539ZM33.748 23.0039L34.0391 21.8397L34.0196 21.8349L33.7285 22.999L33.4375 24.1632L33.457 24.1681L33.748 23.0039ZM33.7285 22.999L34.0582 21.8452L34.0377 21.8393L33.708 22.9932L33.3783 24.147L33.3989 24.1529L33.7285 22.999ZM33.708 22.9932L34.0512 21.8433C32.5578 21.3976 30.9539 21.175 29.2412 21.175L29.2412 22.375L29.2412 23.575C30.7446 23.575 32.1153 23.7701 33.3648 24.143L33.708 22.9932ZM29.2412 22.375L29.2411 21.175C27.7053 21.1751 26.5404 21.4195 25.7496 21.9098L26.3818 22.9297L27.0141 23.9496C27.2512 23.8026 27.8897 23.5751 29.2413 23.575L29.2412 22.375ZM26.3818 22.9297L25.7376 21.9173L25.7161 21.931L26.3604 22.9434L27.0046 23.9558L27.0261 23.9421L26.3818 22.9297ZM26.3604 22.9434L25.7857 21.8899L25.7642 21.9016L26.3389 22.9551L26.9135 24.0086L26.935 23.9968L26.3604 22.9434ZM26.3389 22.9551L25.7494 21.9098C25.4018 22.1059 25.0788 22.3567 24.8546 22.7046C24.6108 23.0829 24.5638 23.4508 24.5637 23.7153L25.7637 23.7158L26.9637 23.7163C26.9637 23.7218 26.9634 23.7646 26.9484 23.8254C26.9324 23.8905 26.9056 23.9526 26.872 24.0046C26.8101 24.1008 26.7747 24.087 26.9283 24.0003L26.3389 22.9551ZM25.7637 23.7158L24.5637 23.7162C24.5638 24.1854 24.6968 24.5916 24.9585 24.9352L25.9131 24.208L26.8677 23.4808C26.8944 23.5159 26.9251 23.5681 26.9454 23.6308C26.9646 23.6898 26.9637 23.7244 26.9637 23.7154L25.7637 23.7158ZM25.9131 24.208L24.9593 24.9362C25.223 25.2816 25.6188 25.5653 26.1448 25.7878L26.6123 24.6826L27.0798 23.5774C26.8189 23.4671 26.8091 23.4041 26.8669 23.4798L25.9131 24.208ZM26.6123 24.6826L26.145 25.7879C27.1953 26.232 28.9216 26.7653 31.3236 27.3864L31.624 26.2246L31.9244 25.0628C29.5365 24.4453 27.9562 23.948 27.0796 23.5774L26.6123 24.6826ZM31.624 26.2246V27.4246H31.625V26.2246V25.0246H31.624V26.2246ZM31.625 26.2246L31.3498 27.3926L35.0393 28.2618L35.3145 27.0938L35.5896 25.9257L31.9002 25.0566L31.625 26.2246ZM35.3145 27.0938L35.0234 28.2579L35.0312 28.2599L35.3223 27.0957L35.6133 25.9315L35.6055 25.9296L35.3145 27.0938ZM35.3223 27.0957L35.0619 28.2671L35.0707 28.2691L35.3311 27.0977L35.5914 25.9262L35.5826 25.9243L35.3223 27.0957ZM35.3311 27.0977L35.04 28.2618C38.0701 29.0195 40.7275 29.934 43.0115 31.0037L43.5205 29.917L44.0295 28.8303C41.5774 27.6819 38.7688 26.7203 35.6221 25.9335L35.3311 27.0977ZM43.5205 29.917L43.0115 31.0037C45.2954 32.0734 47.0747 33.4779 48.3485 35.2161L49.3164 34.5068L50.2843 33.7975C48.7351 31.6834 46.6155 30.0415 44.0295 28.8303L43.5205 29.917ZM49.3164 34.5068L48.3484 35.2161C49.6222 36.9544 50.2599 39.2281 50.26 42.0362L51.46 42.0361L52.66 42.0361C52.6599 38.8722 51.9395 36.0565 50.2844 33.7976L49.3164 34.5068ZM51.46 42.0361L50.26 42.0361C50.2599 45.4235 49.4686 48.1873 47.8875 50.3269L48.8525 51.04L49.8176 51.7532C51.7783 49.1 52.6599 45.7957 52.66 42.0361L51.46 42.0361ZM48.8525 51.04L47.8695 50.3519L47.8626 50.3616L48.8457 51.0498L49.8288 51.738L49.8356 51.7282L48.8525 51.04ZM48.8457 51.0498L47.8879 50.3269C46.3068 52.4215 44.1101 53.9595 41.2991 54.9402L41.6943 56.0732L42.0896 57.2063C45.286 56.0911 47.8993 54.2955 49.8035 51.7727L48.8457 51.0498ZM41.6943 56.0732L41.2991 54.9402C38.4881 55.9207 35.1932 56.4113 31.416 56.4113L31.416 57.6113L31.416 58.8113C35.3934 58.8113 38.9666 58.2956 42.0896 57.2063L41.6943 56.0732ZM31.416 57.6113L31.416 56.4113C28.9565 56.4113 26.4743 56.1661 23.9709 55.6759L23.7402 56.8535L23.5096 58.0311C26.1594 58.5501 28.796 58.8113 31.416 58.8113L31.416 57.6113ZM23.7402 56.8535L23.9227 55.6675L23.91 55.6655L23.7275 56.8516L23.5451 58.0376L23.5578 58.0396L23.7402 56.8535ZM23.7275 56.8516L24.0186 55.6874L24.0069 55.6845L23.7158 56.8486L23.4248 58.0128L23.4365 58.0157L23.7275 56.8516ZM23.7158 56.8486L23.9708 55.676C21.5113 55.1412 19.2268 54.3828 17.1184 53.4022L16.6123 54.4902L16.1062 55.5783C18.3876 56.6394 20.8421 57.4517 23.4608 58.0212L23.7158 56.8486ZM16.6123 54.4902L17.085 53.3873L17.0713 53.3814L16.5986 54.4844L16.1259 55.5873L16.1396 55.5932L16.6123 54.4902ZM16.5986 54.4844L17.1353 53.4111L17.1216 53.4042L16.585 54.4775L16.0483 55.5509L16.062 55.5577L16.5986 54.4844ZM16.585 54.4775L17.1187 53.4028C15.0544 52.3776 13.3846 51.1514 12.1109 49.7251L11.2158 50.5244L10.3208 51.3237C11.8353 53.0196 13.7681 54.4184 16.0512 55.5523L16.585 54.4775ZM11.2158 50.5244L12.1269 49.7435L12.1152 49.7298L11.2041 50.5107L10.293 51.2917L10.3047 51.3054L11.2158 50.5244ZM11.2041 50.5107L12.1113 49.7252C10.8375 48.2541 10.2 46.5598 10.2 44.6435L9 44.6436L7.8 44.6436C7.80002 47.147 8.65211 49.3966 10.2969 51.2962L11.2041 50.5107ZM9 44.6436L10.2 44.6436C10.2 43.4177 10.2276 41.0605 10.4472 38.8264L9.25293 38.709L8.05868 38.5916C7.82736 40.945 7.80001 43.3963 7.8 44.6435L9 44.6436ZM9.25293 38.709L10.4472 38.8264C10.557 37.7094 10.7146 36.6226 10.941 35.7237L9.77734 35.4307L8.61368 35.1376C8.3458 36.2013 8.17379 37.4207 8.05869 38.5916L9.25293 38.709ZM9.77734 35.4307L10.941 35.7238C11.1667 34.8279 11.4622 34.1135 11.8474 33.7448L11.0176 32.8779L10.1878 32.0111C9.26922 32.8904 8.84788 34.2079 8.6137 35.1375L9.77734 35.4307ZM11.0176 32.8779L11.8471 33.7451C12.2331 33.3758 12.5986 33.2289 12.966 33.2465L13.0234 32.0479L13.0808 30.8492C11.8775 30.7916 10.9025 31.3274 10.1881 32.0108L11.0176 32.8779ZM13.0234 32.0479L12.9656 33.2465C13.3353 33.2643 13.7108 33.4486 14.1156 33.7448L14.8242 32.7764L15.5328 31.8079C14.9946 31.4141 14.1529 30.9009 13.0813 30.8492L13.0234 32.0479ZM14.8242 32.7764L14.1155 33.7447C14.521 34.0415 14.9581 34.452 15.4493 34.9203L16.2773 34.0518L17.1054 33.1832C16.6363 32.7361 16.0864 32.213 15.5329 31.808L14.8242 32.7764ZM16.2773 34.0518L15.4493 34.9203C15.9412 35.3892 16.4894 35.9178 17.1183 36.4524L17.8955 35.5381L18.6727 34.6238C18.1065 34.1425 17.6113 33.6655 17.1054 33.1832L16.2773 34.0518ZM17.8955 35.5381L17.1184 36.4524C19.3881 38.3816 21.7035 39.3733 22.8042 39.796L23.2344 38.6758L23.6646 37.5555C22.6849 37.1794 20.6505 36.3048 18.6727 34.6237L17.8955 35.5381ZM23.2344 38.6758L22.8042 39.796C24.4281 40.4196 25.8799 41.0352 27.7455 41.4678L28.0166 40.2988L28.2877 39.1298C26.6271 38.7448 25.3715 38.211 23.6645 37.5555L23.2344 38.6758ZM28.0166 40.2988L27.7456 41.4678C29.5472 41.8855 31.023 41.8628 32.0479 41.7358L31.9004 40.5449L31.7528 39.354C30.9748 39.4504 29.7847 39.4769 28.2876 39.1298L28.0166 40.2988ZM31.9004 40.5449L32.0481 41.7358C32.5603 41.6723 32.9608 41.5824 33.2322 41.5087L32.918 40.3506L32.6037 39.1925C32.4313 39.2392 32.1423 39.3057 31.7527 39.354L31.9004 40.5449ZM32.918 40.3506L33.2324 41.5086C33.3696 41.4714 33.4746 41.4378 33.5424 41.4148L33.1572 40.2783L32.772 39.1418C32.7447 39.1511 32.6873 39.1698 32.6035 39.1925L32.918 40.3506ZM33.1572 40.2783L33.5461 41.4136C33.5673 41.4063 33.5848 41.3997 33.5967 41.3951C33.6082 41.3906 33.6176 41.3868 33.6202 41.3857C33.621 41.3854 33.6218 41.385 33.6219 41.385C33.6223 41.3848 33.6221 41.3849 33.6218 41.385C33.6213 41.3852 33.6191 41.3862 33.6159 41.3874C33.6127 41.3887 33.6077 41.3907 33.6014 41.3931C33.5951 41.3955 33.5867 41.3986 33.5766 41.4022L33.1748 40.2715L32.7731 39.1407C32.7617 39.1448 32.7519 39.1484 32.7442 39.1514C32.7366 39.1543 32.7302 39.1568 32.7256 39.1586C32.7211 39.1604 32.7174 39.162 32.7155 39.1627C32.7145 39.1632 32.7136 39.1635 32.7132 39.1637C32.7129 39.1638 32.7129 39.1638 32.7127 39.1639C32.7126 39.1639 32.7126 39.1639 32.7127 39.1639C32.7127 39.1639 32.7143 39.1632 32.7166 39.1623C32.719 39.1613 32.7226 39.1599 32.7271 39.1581C32.7359 39.1547 32.7503 39.1493 32.7684 39.1431L33.1572 40.2783ZM33.1748 40.2715L33.7036 41.3487C33.6969 41.352 33.6923 41.3541 33.6918 41.3544C33.6916 41.3545 33.6914 41.3546 33.6957 41.3526C33.6989 41.3511 33.7051 41.3482 33.7122 41.3449C33.7194 41.3415 33.7289 41.3369 33.7398 41.3316L33.21 40.2549L32.6801 39.1782C32.6848 39.1759 32.688 39.1744 32.689 39.1739C32.6899 39.1735 32.6899 39.1735 32.6872 39.1748C32.6855 39.1755 32.6795 39.1783 32.6738 39.181C32.6676 39.1839 32.6577 39.1885 32.646 39.1943L33.1748 40.2715ZM33.21 40.2549L33.7407 41.3311C33.8 41.3019 33.8858 41.2594 33.9893 41.2078L33.4541 40.1338L32.9189 39.0597C32.8182 39.1099 32.7354 39.1509 32.6792 39.1786L33.21 40.2549ZM33.4541 40.1338L33.9893 41.2078C34.1971 41.1043 34.4833 40.9607 34.7891 40.8035L34.2402 39.7363L33.6914 38.6692C33.3982 38.82 33.122 38.9585 32.9189 39.0598L33.4541 40.1338ZM34.2402 39.7363L34.7891 40.8035C35.399 40.4897 36.0935 40.1193 36.4232 39.8964L35.751 38.9023L35.0787 37.9083C34.8923 38.0344 34.3382 38.3365 33.6914 38.6692L34.2402 39.7363ZM35.751 38.9023L36.4236 39.8961C36.7023 39.7074 36.9752 39.4576 37.1653 39.1092C37.3592 38.7541 37.4119 38.3979 37.4119 38.0908H36.2119H35.0119C35.0119 38.1086 35.0103 38.0985 35.0164 38.0707C35.0231 38.0401 35.0363 38.0004 35.0587 37.9594C35.1054 37.8738 35.1478 37.8616 35.0783 37.9086L35.751 38.9023ZM36.2119 38.0908L37.4119 38.0903C37.4118 37.7141 37.3281 37.2931 37.0685 36.8751C36.821 36.4763 36.4601 36.1557 36.028 35.8843L35.3896 36.9004L34.7513 37.9165C34.9813 38.061 35.0316 38.1442 35.0295 38.141C35.0275 38.1377 35.0205 38.1244 35.0155 38.1052C35.0109 38.0875 35.0119 38.0801 35.0119 38.0913L36.2119 38.0908ZM35.3896 36.9004L36.0279 35.8842C35.1054 35.3048 33.9405 34.8592 32.5355 34.5473L32.2754 35.7188L32.0153 36.8902C33.234 37.1608 34.123 37.5219 34.7514 37.9166L35.3896 36.9004ZM32.2754 35.7188L32.5107 34.5421L32.4961 34.5391L32.2607 35.7158L32.0254 36.8925L32.0401 36.8954L32.2754 35.7188ZM32.2607 35.7158L32.5699 34.5563L32.5553 34.5524L32.2461 35.7119L31.9369 36.8714L31.9515 36.8753L32.2607 35.7158ZM32.2461 35.7119L32.5356 34.5474L29.3071 33.7446L29.0176 34.9092L28.728 36.0737L31.9565 36.8765L32.2461 35.7119ZM29.0176 34.9092H30.2176V34.9082H29.0176H27.8176V34.9092H29.0176ZM29.0176 34.9082L29.2981 33.7415C25.9637 32.9397 22.9796 32.0502 20.3472 31.0706L19.9287 32.1953L19.5102 33.32C22.2505 34.3396 25.3293 35.2556 28.737 36.0749L29.0176 34.9082ZM19.9287 32.1953L20.4161 31.0987L20.4073 31.0948L19.9199 32.1914L19.4326 33.288L19.4413 33.2919L19.9287 32.1953ZM19.9199 32.1914L20.3413 31.0678L20.3335 31.0649L19.9121 32.1885L19.4908 33.3121L19.4986 33.315L19.9199 32.1914ZM19.9121 32.1885L20.3472 31.0701C17.7118 30.0449 15.6249 28.7077 14.0877 27.0587L13.21 27.877L12.3322 28.6952C14.1702 30.6669 16.5888 32.1832 19.477 33.3068L19.9121 32.1885ZM13.21 27.877L14.0917 27.063L14.08 27.0503L13.1982 27.8643L12.3165 28.6782L12.3282 28.6909L13.21 27.877ZM13.1982 27.8643L14.0828 27.0534L14.0721 27.0417L13.1875 27.8525L12.3029 28.6634L12.3137 28.6751L13.1982 27.8643ZM13.1875 27.8525L14.0877 27.059C12.5947 25.3654 11.8475 23.1139 11.8475 20.3056L10.6475 20.3057L9.44746 20.3057C9.44752 23.5498 10.3199 26.4143 12.2873 28.6461L13.1875 27.8525ZM10.6475 20.3057L11.8475 20.3057C11.8475 17.42 12.5826 15.0463 14.045 13.1859L13.1016 12.4443L12.1582 11.7027C10.2963 14.0712 9.44755 17.0014 9.44746 20.3056L10.6475 20.3057ZM13.1016 12.4443L14.0256 13.21L14.3703 12.794L13.4463 12.0283L12.5223 11.2627L12.1776 11.6787L13.1016 12.4443ZM13.4463 12.0283L14.3593 12.807C16.0275 10.851 18.2871 9.42704 21.137 8.53705L20.7793 7.3916L20.4216 6.24616C17.2106 7.24892 14.5398 8.89685 12.5332 11.2496L13.4463 12.0283ZM20.7793 7.3916L21.137 8.53706C23.9918 7.64567 27.1776 7.20004 30.6914 7.2L30.6914 6L30.6914 4.8C26.9765 4.80004 23.5445 5.27105 20.4216 6.24614L20.7793 7.3916ZM30.6914 7.2002L30.6914 6.0002C27.0773 6.00023 23.7689 6.45846 20.7801 7.39164L21.1377 8.53711L21.4953 9.68258C24.2162 8.83307 27.2784 8.40023 30.6914 8.4002L30.6914 7.2002ZM21.1377 8.53711L20.7626 7.39722L20.2343 7.57105L20.6094 8.71094L20.9844 9.85082L21.5127 9.677L21.1377 8.53711ZM20.6094 8.71094L20.2184 7.57642C17.4379 8.53463 15.1605 10.0146 13.4378 12.0386L14.3516 12.8164L15.2654 13.5942C16.672 11.9416 18.5673 10.684 21.0004 9.84546L20.6094 8.71094ZM14.3516 12.8164L13.4279 12.0504L13.1242 12.4166L14.0479 13.1826L14.9715 13.9487L15.2752 13.5824L14.3516 12.8164ZM14.0479 13.1826L13.1047 12.4407C11.4378 14.5596 10.6477 17.2132 10.6477 20.3056L11.8477 20.3057L13.0477 20.3057C13.0477 17.6317 13.7241 15.5351 14.991 13.9245L14.0479 13.1826ZM11.8477 20.3057L10.6478 20.326L10.6566 20.8455L11.8564 20.8252L13.0563 20.8049L13.0475 20.2854L11.8477 20.3057ZM11.8564 20.8252L10.6571 20.8661C10.752 23.6499 11.567 26.0136 13.1877 27.8521L14.0879 27.0586L14.9881 26.2651C13.809 24.9276 13.1358 23.1351 13.0557 20.7843L11.8564 20.8252ZM14.0879 27.0586L13.2101 27.8768C14.8976 29.6871 17.1498 31.1142 19.9116 32.1887L20.3467 31.0703L20.7818 29.952C18.2733 28.9761 16.3526 27.7282 14.9657 26.2404L14.0879 27.0586ZM20.3467 31.0703L19.9282 32.195C22.6172 33.1956 25.652 34.1007 29.0272 34.9119L29.3076 33.7451L29.5881 32.5783C26.287 31.7849 23.3469 30.9063 20.7652 29.9456L20.3467 31.0703ZM29.3076 33.7451L29.0184 34.9097L32.2469 35.7115L32.5361 34.5469L32.8254 33.3822L29.5968 32.5805L29.3076 33.7451ZM32.5361 34.5469L32.2761 35.7184C33.5875 36.0095 34.6144 36.4137 35.39 36.9009L36.0283 35.8848L36.6666 34.8686C35.5977 34.1972 34.2954 33.7082 32.7962 33.3754L32.5361 34.5469ZM36.0283 35.8848L35.3899 36.9008C36.0514 37.3165 36.2111 37.7078 36.2111 38.0911L37.4111 38.0908L38.6111 38.0906C38.6108 36.6916 37.8491 35.6116 36.6668 34.8687L36.0283 35.8848ZM37.4111 38.0908H36.2111C36.2111 38.4272 36.0986 38.6669 35.7503 38.9027L36.4229 39.8965L37.0954 40.8903C38.0644 40.2346 38.6111 39.2698 38.6111 38.0908H37.4111ZM36.4229 39.8965L35.7889 38.8776L35.4813 39.069L36.1152 40.0879L36.7492 41.1068L37.0568 40.9154L36.4229 39.8965ZM36.1152 40.0879L35.5079 39.0529C34.7174 39.5168 33.1659 40.2771 33.121 40.2991L33.6484 41.377L34.1758 42.4548C34.1953 42.4453 35.8373 41.6424 36.7226 41.1229L36.1152 40.0879ZM33.6484 41.377L33.2033 40.2626C33.3179 40.2168 31.4126 41.005 28.3221 40.3659L28.0791 41.541L27.8361 42.7161C31.5171 43.4774 33.9131 42.5634 34.0935 42.4914L33.6484 41.377ZM28.0791 41.541L28.3362 40.3689L28.0022 40.2956L27.7451 41.4678L27.4881 42.6399L27.8221 42.7132L28.0791 41.541ZM27.7451 41.4678L28.0162 40.2988C26.2531 39.8899 24.8996 39.3153 23.2339 38.6756L22.8037 39.7959L22.3736 40.9162C23.9579 41.5245 25.5062 42.1804 27.474 42.6368L27.7451 41.4678ZM22.8037 39.7959L23.2339 38.6757C22.2595 38.3015 20.2865 37.4584 18.2928 35.8661L17.5439 36.8037L16.7951 37.7414C19.0583 39.5489 21.284 40.4978 22.3735 40.9161L22.8037 39.7959ZM17.5439 36.8037L18.3067 35.8773L17.8809 35.5267L17.1182 36.4531L16.3554 37.3795L16.7812 37.7301L17.5439 36.8037ZM17.1182 36.4531L17.8953 35.5388C17.2975 35.0306 16.7761 34.5279 16.277 34.0521C15.7967 33.5943 15.3038 33.1281 14.8241 32.7771C14.3525 32.4319 13.7444 32.0832 13.0235 32.0485C12.2379 32.0106 11.5686 32.3515 11.0182 32.878L11.8477 33.7451L12.6771 34.6123C12.7924 34.502 12.8644 34.4635 12.8918 34.4516C12.9049 34.4459 12.91 34.4452 12.9086 34.4455C12.9071 34.4457 12.9061 34.4456 12.9079 34.4457C12.926 34.4466 13.0676 34.4657 13.4068 34.7139C13.7381 34.9563 14.1172 35.3091 14.621 35.7893C15.1059 36.2515 15.6804 36.806 16.341 37.3675L17.1182 36.4531ZM11.8477 33.7451L10.9633 32.934L10.8227 33.0873L11.707 33.8984L12.5914 34.7096L12.732 34.5562L11.8477 33.7451ZM11.707 33.8984L10.7711 33.1474C10.2389 33.8106 9.92269 34.7835 9.70967 35.7133C9.48596 36.6897 9.33536 37.8139 9.23232 38.9255C9.02591 41.152 9.0002 43.4449 9.0002 44.6435L10.2002 44.6436L11.4002 44.6436C11.4002 43.467 11.426 41.2619 11.6221 39.147C11.7203 38.0878 11.8586 37.0804 12.0491 36.2493C12.2502 35.3715 12.4733 34.8609 12.6429 34.6495L11.707 33.8984ZM10.2002 44.6436L9.00048 44.6698L9.0083 45.0263L10.208 45L11.4077 44.9737L11.3999 44.6173L10.2002 44.6436ZM10.208 45L9.00907 45.0505C9.09543 47.1008 9.83841 48.9327 11.2041 50.5101L12.1113 49.7246L13.0185 48.9391C11.9963 47.7585 11.4698 46.4406 11.4069 44.9495L10.208 45ZM12.1113 49.7246L11.2163 50.5239C12.6102 52.0848 14.4106 53.3975 16.5844 54.4771L17.1182 53.4023L17.6519 52.3276C15.6974 51.3569 14.1598 50.2169 13.0064 48.9253L12.1113 49.7246ZM17.1182 53.4023L16.6121 54.4904C18.807 55.5113 21.1766 56.2962 23.7157 56.8484L23.9707 55.6758L24.2257 54.5032C21.8456 53.9856 19.6459 53.2546 17.6242 52.3143L17.1182 53.4023ZM23.9707 55.6758L23.7401 56.8534C25.9946 57.2949 28.2359 57.5437 30.4623 57.599L30.4922 56.3994L30.522 55.1998C28.4347 55.1479 26.3278 54.9146 24.2013 54.4982L23.9707 55.6758ZM30.4922 56.3994L30.477 57.5993L31.4008 57.611L31.416 56.4111L31.4312 55.2112L30.5074 55.1995L30.4922 56.3994ZM31.416 56.4111L31.416 57.6111C35.0513 57.6111 38.2959 57.1688 41.1315 56.261L40.7656 55.1182L40.3998 53.9753C37.8516 54.791 34.8627 55.2111 31.416 55.2111L31.416 56.4111ZM40.7656 55.1182L41.1451 56.2566L41.6783 56.0788L41.2988 54.9404L40.9194 53.802L40.3862 53.9797L40.7656 55.1182ZM41.2988 54.9404L41.6941 56.0735C44.5088 55.0915 46.7996 53.5653 48.5125 51.4731L47.584 50.7129L46.6555 49.9527C45.2594 51.6579 43.3595 52.9506 40.9036 53.8074L41.2988 54.9404ZM47.584 50.7129L48.5268 51.4552L48.8305 51.0695L47.8877 50.3271L46.9449 49.5848L46.6411 49.9706L47.584 50.7129ZM47.8877 50.3271L48.8528 51.0403C50.5125 48.7944 51.3513 45.9865 51.4495 42.6999L50.25 42.6641L49.0505 42.6282C48.9633 45.5467 48.2274 47.8483 46.9226 49.614L47.8877 50.3271ZM50.25 42.6641L51.4499 42.6827L51.4596 42.0548L50.2598 42.0361L49.0599 42.0175L49.0501 42.6454L50.25 42.6641ZM50.2598 42.0361L51.4598 42.0361C51.4597 39.2373 50.8639 36.8252 49.5809 34.8858L48.5801 35.5479L47.5793 36.2099C48.5354 37.6553 49.0597 39.5698 49.0598 42.0362L50.2598 42.0361ZM48.5801 35.5479L49.5645 34.8616L49.3331 34.5296L48.3486 35.2158L47.3642 35.902L47.5956 36.2341L48.5801 35.5479ZM48.3486 35.2158L49.3166 34.5065C47.9938 32.7014 46.198 31.2492 43.9717 30.1349L43.4346 31.208L42.8975 32.2811C44.8347 33.2508 46.3153 34.4712 47.3807 35.9251L48.3486 35.2158ZM43.4346 31.208L43.9562 30.1273L43.5333 29.9232L43.0117 31.0039L42.4901 32.0846L42.9129 32.2887L43.4346 31.208ZM43.0117 31.0039L43.5207 29.9172C41.1528 28.8082 38.4199 27.8699 35.3311 27.0976L35.04 28.2617L34.749 29.4259C37.7211 30.169 40.3028 31.0603 42.5027 32.0906L43.0117 31.0039ZM35.04 28.2617L35.3151 27.0937L31.6247 26.2245L31.3496 27.3926L31.0745 28.5606L34.765 29.4298L35.04 28.2617ZM31.3496 27.3926L31.6497 26.2307C29.2408 25.6084 27.5787 25.0916 26.6119 24.6828L26.1445 25.7881L25.6772 26.8933C26.8185 27.3759 28.6275 27.9288 31.0495 28.5544L31.3496 27.3926ZM26.1445 25.7881L26.6121 24.6829C25.9101 24.386 25.7862 24.0757 25.7662 23.8008L24.5693 23.8877L23.3725 23.9746C23.4758 25.3973 24.403 26.3543 25.677 26.8933L26.1445 25.7881ZM24.5693 23.8877L25.7686 23.8468L25.7628 23.6749L24.5635 23.7158L23.3642 23.7567L23.37 23.9286L24.5693 23.8877ZM24.5635 23.7158L25.7635 23.7161C25.7635 23.4878 25.836 23.2673 26.2436 23.0114L25.6055 21.9951L24.9673 20.9789C23.9861 21.595 23.3637 22.5237 23.3635 23.7156L24.5635 23.7158ZM25.6055 21.9951L26.2136 23.0296L26.3581 22.9447L25.75 21.9102L25.1419 20.8757L24.9974 20.9606L25.6055 21.9951ZM25.75 21.9102L26.3822 22.9301C26.8963 22.6115 27.7977 22.3749 29.2413 22.3748L29.2412 21.1748L29.2411 19.9748C27.6116 19.9749 26.1847 20.2288 25.1178 20.8902L25.75 21.9102ZM29.2412 21.1748L29.2228 22.3747L29.8605 22.3844L29.8789 21.1846L29.8973 19.9847L29.2596 19.9749L29.2412 21.1748ZM29.8789 21.1846L29.8392 22.3839C31.2194 22.4296 32.5084 22.6345 33.7086 22.9927L34.0518 21.8428L34.3949 20.6929C32.982 20.2712 31.4877 20.0371 29.9186 19.9852L29.8789 21.1846ZM34.0518 21.8428L33.7488 23.0039C35.2643 23.3994 36.6902 23.8164 38.0261 24.2537L38.3994 23.1133L38.7727 21.9728C37.386 21.5189 35.913 21.0883 34.3548 20.6817L34.0518 21.8428ZM38.3994 23.1133L38.1041 24.2764C40.7388 24.9453 42.4435 25.2592 43.49 25.2998C43.9591 25.3181 44.5529 25.2992 45.0297 25.0216C45.3204 24.8523 45.6037 24.5643 45.7216 24.1402C45.8303 23.7492 45.7521 23.4046 45.6723 23.1862C45.525 22.7837 45.2351 22.4445 45.0403 22.2328C44.8179 21.9911 44.5584 21.749 44.3369 21.5449C44.0982 21.3251 43.9088 21.1537 43.761 21.0041C43.689 20.9312 43.6495 20.8859 43.6317 20.8632C43.5995 20.8222 43.6626 20.8883 43.7104 21.0337L42.5703 21.4082L41.4302 21.7827C41.5147 22.0398 41.6596 22.2377 41.7434 22.3446C41.8416 22.4697 41.9523 22.5883 42.0538 22.691C42.253 22.8926 42.5036 23.1192 42.7107 23.31C42.9348 23.5165 43.1268 23.6977 43.2741 23.8578C43.4489 24.0478 43.4469 24.0889 43.4184 24.0108C43.3978 23.9547 43.3367 23.7584 43.4093 23.4975C43.491 23.2036 43.6849 23.0274 43.8221 22.9475C43.9918 22.8487 44.0219 22.9187 43.5832 22.9017C42.8143 22.8718 41.3273 22.6185 38.6947 21.9502L38.3994 23.1133ZM42.5703 21.4082L43.7104 21.0338C43.6203 20.7593 43.5937 20.6128 43.588 20.5529C43.5809 20.4777 43.6151 20.6384 43.4883 20.8583C43.3295 21.1337 43.0794 21.2374 42.9554 21.2655C42.8745 21.2839 42.8513 21.2706 42.9738 21.2803C43.0922 21.2897 43.6692 21.3741 44.1166 21.352C44.6596 21.3252 45.3456 21.1594 45.9113 20.5635L45.041 19.7373L44.1707 18.9111C44.1654 18.9167 44.1543 18.9472 43.9983 18.9549C43.7469 18.9673 43.6233 18.9243 43.1639 18.8879C42.9975 18.8746 42.7161 18.8587 42.4233 18.9253C42.0874 19.0017 41.6715 19.2043 41.409 19.6598C41.1783 20.0599 41.1705 20.4819 41.1988 20.7796C41.2284 21.0926 41.3146 21.4306 41.4302 21.7826L42.5703 21.4082ZM45.041 19.7373L45.9109 20.5639C46.4493 19.9973 46.9917 19.5037 47.5376 18.9863C48.0602 18.4911 48.6024 17.9592 49.0193 17.391C49.4442 16.8119 49.7994 16.1158 49.849 15.2848C49.8992 14.4429 49.6265 13.6285 49.1055 12.8329L48.1016 13.4902L47.0976 14.1476C47.4168 14.635 47.465 14.9448 47.4532 15.1419C47.4408 15.3499 47.3511 15.6077 47.0843 15.9712C46.8095 16.3458 46.4132 16.7454 45.8868 17.2443C45.3837 17.721 44.7666 18.2841 44.1711 18.9107L45.041 19.7373ZM48.1016 13.4902L49.0857 12.8036L48.9099 12.5517L47.9258 13.2383L46.9416 13.9249L47.1174 14.1769L48.1016 13.4902ZM47.9258 13.2383L48.8919 12.5265C48.3887 11.8435 47.8446 11.2203 47.3201 10.7336L46.5039 11.6133L45.6877 12.493C46.0805 12.8574 46.5264 13.3619 46.9596 13.95L47.9258 13.2383ZM46.5039 11.6133L47.3327 10.7455C45.7584 9.24201 43.6327 8.1202 41.0297 7.33371L40.6826 8.48242L40.3355 9.63113C42.6939 10.3437 44.4494 11.3105 45.6751 12.4811L46.5039 11.6133ZM40.6826 8.48242L41.0155 7.32953L40.5116 7.18402L40.1787 8.33691L39.8458 9.48981L40.3497 9.63532L40.6826 8.48242ZM40.1787 8.33691L40.5004 7.18083C37.8263 6.4368 34.7805 6.05064 31.3774 6.00519L31.3613 7.20508L31.3453 8.40497C34.592 8.44834 37.4252 8.81639 39.857 9.493L40.1787 8.33691ZM31.3613 7.20508L31.3701 6.00511L30.7002 6.00023L30.6914 7.2002L30.6827 8.40016L31.3526 8.40505L31.3613 7.20508ZM14.2539 41.6641L14.8904 42.6813C14.642 42.8368 14.3297 42.7876 14.1382 42.5867L15.0068 41.7588L15.8755 40.9309C15.299 40.326 14.3573 40.1838 13.6174 40.6468L14.2539 41.6641ZM15.0068 41.7588L14.0586 42.4942L14.1328 42.5899L15.0811 41.8545L16.0293 41.1191L15.9551 41.0234L15.0068 41.7588ZM15.0811 41.8545L14.0685 42.4984L14.338 42.9223L15.3506 42.2783L16.3632 41.6344L16.0936 41.2105L15.0811 41.8545ZM15.3506 42.2783L14.3443 42.9321C14.9938 43.9317 15.6278 44.7685 16.2879 45.4477L17.1484 44.6113L18.009 43.775C17.4947 43.2458 16.9561 42.5469 16.3568 41.6245L15.3506 42.2783ZM17.1484 44.6113L16.288 45.4478C17.2776 46.4658 18.3289 47.1292 19.5813 47.46L19.8877 46.2998L20.1941 45.1396C19.4339 44.9388 18.7503 44.5376 18.0089 43.7749L17.1484 44.6113ZM19.8877 46.2998L19.5815 47.4601C20.821 47.7872 22.2127 47.777 23.8642 47.5284L23.6855 46.3418L23.5069 45.1552C22.0212 45.3788 20.9927 45.3504 20.1939 45.1395L19.8877 46.2998ZM23.6855 46.3418L23.7526 47.5399L23.8747 47.5331L23.8076 46.335L23.7405 45.1368L23.6185 45.1437L23.6855 46.3418ZM23.8076 46.335L23.7443 47.5333C23.461 47.5183 23.2245 47.3086 23.1816 47.0249L24.3682 46.8457L25.5547 46.6665C25.4253 45.8098 24.7112 45.181 23.871 45.1366L23.8076 46.335ZM24.3682 46.8457L23.1815 47.0238C23.1324 46.6971 23.3571 46.3912 23.6856 46.3417L23.8643 47.5283L24.043 48.7149C25.0266 48.5668 25.7022 47.6494 25.5549 46.6676L24.3682 46.8457ZM23.8643 47.5283L23.7037 46.3391L23.0962 46.4211L23.2568 47.6104L23.4174 48.7996L24.0249 48.7175L23.8643 47.5283ZM23.2568 47.6104L23.1161 46.4186C21.8172 46.572 20.778 46.5348 19.8873 46.2997L19.5811 47.46L19.2748 48.6202C20.5535 48.9577 21.9179 48.9768 23.3976 48.8021L23.2568 47.6104ZM19.5811 47.46L19.8875 46.2998C19.2878 46.1413 18.746 45.8902 18.2304 45.5367L17.5518 46.5264L16.8731 47.5161C17.6087 48.0204 18.4013 48.3895 19.2746 48.6202L19.5811 47.46ZM17.5518 46.5264L16.39 46.8269C16.6793 47.945 17.1742 48.8764 17.8269 49.6326L18.7354 48.8486L19.6438 48.0646C19.2436 47.6009 18.9149 47.0045 18.7135 46.2258L17.5518 46.5264ZM18.7354 48.8486L17.827 49.6328C18.8026 50.7629 20.1079 51.4809 21.5432 51.8846L21.8682 50.7295L22.1931 49.5743C21.102 49.2674 20.245 48.761 19.6437 48.0645L18.7354 48.8486ZM21.8682 50.7295L21.5433 51.8847C24.3964 52.687 27.8556 52.2773 30.6637 51.3115L30.2734 50.1768L29.8832 49.042C27.3679 49.9071 24.4297 50.2033 22.193 49.5743L21.8682 50.7295ZM30.2734 50.1768L30.6634 51.3116C30.3503 51.4192 30.0096 51.2531 29.9017 50.9399L31.0361 50.5488L32.1706 50.1577C31.8468 49.2185 30.8229 48.7191 29.8834 49.0419L30.2734 50.1768ZM31.0361 50.5488L29.9014 50.9392C29.7935 50.6255 29.9603 50.2849 30.2729 50.1771L30.6641 51.3115L31.0552 52.446C31.994 52.1223 32.4943 51.0986 32.1709 50.1585L31.0361 50.5488ZM30.6641 51.3115L30.2738 50.1768C27.6118 51.0923 24.4125 51.4452 21.8678 50.7296L21.543 51.8848L21.2181 53.04C24.3794 53.929 28.0998 53.4625 31.0544 52.4463L30.6641 51.3115ZM21.543 51.8848L21.868 50.7296C20.6047 50.3742 19.5239 49.7619 18.7355 48.8487L17.8271 49.6328L16.9188 50.417C18.0816 51.7639 19.6108 52.5878 21.218 53.0399L21.543 51.8848ZM17.8271 49.6328L18.7356 48.8488C17.9807 47.9741 17.4619 46.7854 17.3318 45.1878L16.1357 45.2852L14.9397 45.3826C15.1057 47.4206 15.7901 49.1092 16.9187 50.4168L17.8271 49.6328ZM16.1357 45.2852L17.0134 44.4668C16.4708 43.8848 15.9255 43.1627 15.3501 42.2769L14.3438 42.9307L13.3374 43.5844C13.9617 44.5454 14.5914 45.3885 15.258 46.1035L16.1357 45.2852ZM14.3438 42.9307L15.3555 42.2854L15.0752 41.8459L14.0635 42.4912L13.0517 43.1365L13.332 43.5759L14.3438 42.9307ZM14.0635 42.4912L15.1406 41.9623L15.0869 41.8529L14.0098 42.3818L12.9326 42.9108L12.9863 43.0202L14.0635 42.4912ZM14.0098 42.3818L15.1345 41.9636C15.2318 42.2252 15.1379 42.526 14.8917 42.6805L14.2539 41.6641L13.6161 40.6476C12.8797 41.1097 12.5936 42.0163 12.885 42.8001L14.0098 42.3818ZM45.3447 22.6006L44.3782 23.3118C44.465 23.4298 44.5184 23.5264 44.5452 23.5995L45.6719 23.1865L46.7986 22.7736C46.6662 22.4123 46.4749 22.1118 46.3112 21.8893L45.3447 22.6006ZM45.6719 23.1865L44.545 23.5991C44.5753 23.6817 44.583 23.7561 44.5653 23.82L45.7217 24.1406L46.8781 24.4613C47.0771 23.7436 46.9282 23.1277 46.7987 22.774L45.6719 23.1865ZM45.7217 24.1406L44.5655 23.8192C44.5592 23.8418 44.548 23.8662 44.5254 23.8965L45.4863 24.6152L46.4473 25.334C46.625 25.0963 46.7821 24.8065 46.8778 24.4621L45.7217 24.1406ZM45.4863 24.6152L45.0434 25.7305C47.417 26.6733 49.286 27.3371 50.7809 27.656L51.0312 26.4824L51.2816 25.3088C50.0035 25.0362 48.3003 24.4417 45.9293 23.5L45.4863 24.6152ZM51.0312 26.4824L50.781 27.656C52.2225 27.9634 53.4061 27.9689 54.3952 27.504L53.8848 26.418L53.3743 25.332C53.084 25.4684 52.5221 25.5733 51.2815 25.3088L51.0312 26.4824ZM53.8848 26.418L54.7042 25.5413C54.561 25.4075 54.5059 25.3006 54.4832 25.1794L53.3037 25.4004L52.1242 25.6214C52.26 26.3461 52.6312 26.8888 53.0654 27.2947L53.8848 26.418ZM53.3037 25.4004L54.4832 25.1797C54.4639 25.0763 54.4618 24.9215 54.5091 24.6825L53.332 24.4492L52.1549 24.2159C52.0695 24.6471 52.0315 25.1259 52.1242 25.6211L53.3037 25.4004ZM53.332 24.4492L53.2336 23.2533C52.7386 23.294 52.2046 23.317 51.6307 23.3156L51.6279 24.5156L51.6252 25.7156C52.2666 25.7171 52.8681 25.6915 53.4305 25.6452L53.332 24.4492ZM51.6279 24.5156L51.6309 23.3156C51.1862 23.3145 50.6004 23.2052 49.9063 23.0079L49.5781 24.1621L49.2499 25.3164C50.0189 25.535 50.853 25.7137 51.625 25.7156L51.6279 24.5156ZM49.5781 24.1621L49.9064 23.0079C49.2186 22.8123 48.458 22.5408 47.6735 22.2386L47.2422 23.3584L46.8109 24.4782C47.6215 24.7904 48.4598 25.0916 49.2499 25.3163L49.5781 24.1621ZM47.2422 23.3584L47.6735 22.2386C47.0383 21.9939 46.4102 21.7381 45.7963 21.4888L45.3447 22.6006L44.8931 23.7124C45.5018 23.9596 46.1514 24.2242 46.8109 24.4782L47.2422 23.3584ZM49.1006 17.2764L48.1167 16.5893C47.7763 17.0769 47.2991 17.5565 46.7622 18.0667L47.5889 18.9365L48.4155 19.8064C48.9518 19.2967 49.5908 18.6703 50.0845 17.9634L49.1006 17.2764ZM47.5889 18.9365L46.7622 18.0667C46.2263 18.576 45.6253 19.1203 45.0403 19.7359L45.9102 20.5625L46.78 21.3891C47.3089 20.8326 47.8254 20.3672 48.4155 19.8064L47.5889 18.9365ZM45.9102 20.5625L45.0616 21.411L45.0626 21.412L45.9111 20.5635L46.7597 19.7149L46.7587 19.714L45.9102 20.5625ZM45.9111 20.5635L45.0409 19.7372C44.8925 19.8935 44.7337 19.9892 44.5734 20.0508L45.0039 21.1709L45.4345 22.291C45.8946 22.1141 46.3638 21.8296 46.7814 21.3897L45.9111 20.5635ZM45.0039 21.1709L44.5578 22.2849C45.4052 22.6243 46.3554 23.0164 47.2425 23.3581L47.6738 22.2383L48.1052 21.1185C47.2367 20.7839 46.3322 20.4102 45.45 20.0569L45.0039 21.1709ZM47.6738 22.2383L47.2425 23.3581C48.0394 23.665 48.8388 23.9518 49.578 24.162L49.9062 23.0078L50.2345 21.8536C49.5982 21.6726 48.8769 21.4157 48.1051 21.1185L47.6738 22.2383ZM49.9062 23.0078L49.578 24.1621C50.309 24.3699 51.0192 24.5149 51.6279 24.5164L51.6309 23.3164L51.6338 22.1164C51.3544 22.1157 50.8937 22.041 50.2345 21.8536L49.9062 23.0078ZM51.6309 23.3164L51.6281 24.5164C56.8904 24.5285 59.1122 22.7593 59.5886 20.8912L58.4258 20.5947L57.263 20.2982C57.2074 20.5162 56.5465 22.1277 51.6336 22.1164L51.6309 23.3164ZM58.4258 20.5947L59.5893 20.8885C59.6516 20.6417 59.643 20.3946 59.5692 20.167L58.4277 20.5371L57.2863 20.9073C57.2603 20.8273 57.2351 20.7193 57.2314 20.5916C57.2279 20.4743 57.2435 20.3754 57.2623 20.3009L58.4258 20.5947ZM58.4277 20.5371L59.5638 20.1508C59.4906 19.9354 59.3618 19.7472 59.1976 19.5969L58.3877 20.4824L57.5778 21.3679C57.467 21.2665 57.3581 21.1188 57.2916 20.9235L58.4277 20.5371ZM58.3877 20.4824L59.1939 19.5936C58.8799 19.3088 58.4399 19.1608 57.9965 19.1845L58.0605 20.3828L58.1246 21.5811C58.0374 21.5858 57.9512 21.5729 57.8695 21.545C57.796 21.52 57.6914 21.4709 57.5815 21.3713L58.3877 20.4824ZM58.0605 20.3828L57.9961 19.1845C56.409 19.2699 54.5947 19.364 53.0339 18.9021L52.6934 20.0527L52.3528 21.2034C54.3805 21.8035 56.6239 21.6618 58.125 21.5811L58.0605 20.3828ZM52.6934 20.0527L53.034 18.9021C52.2669 18.675 51.5815 18.3176 51.0238 17.7732L50.1855 18.6318L49.3473 19.4905C50.2441 20.366 51.3006 20.8919 52.3527 21.2034L52.6934 20.0527ZM50.1855 18.6318L51.0239 17.7733C50.7154 17.472 50.4408 17.1049 50.2088 16.6575L49.1436 17.21L48.0783 17.7624C48.4217 18.4247 48.8463 19.0013 49.3472 19.4904L50.1855 18.6318ZM49.1436 17.21L48.1497 16.5375C48.1378 16.5551 48.1279 16.5704 48.1209 16.5813C48.1145 16.5913 48.108 16.6018 48.106 16.605C48.1027 16.6102 48.1029 16.6099 48.104 16.6082C48.1054 16.6061 48.1096 16.5996 48.1159 16.5905L49.1006 17.2764L50.0852 17.9623C50.099 17.9425 50.1105 17.925 50.119 17.9119C50.1273 17.8991 50.1345 17.8876 50.1383 17.8815C50.1408 17.8776 50.1416 17.8763 50.1431 17.874C50.1436 17.8732 50.144 17.8726 50.1442 17.8722C50.1445 17.8718 50.1446 17.8716 50.1446 17.8716C50.1446 17.8716 50.1439 17.8727 50.1428 17.8744C50.1416 17.8762 50.1398 17.8789 50.1374 17.8824L49.1436 17.21ZM47.4316 19.4268L48.4183 20.1098C48.1855 20.4461 47.8608 20.4593 47.7983 20.4567C47.718 20.4534 47.7087 20.4316 47.7419 20.4545L48.4248 19.4678L49.1077 18.4811C48.7594 18.24 48.3371 18.0769 47.8974 18.0588C47.4754 18.0413 46.8449 18.1661 46.445 18.7437L47.4316 19.4268ZM48.4248 19.4678L47.7417 20.4544C47.7751 20.4775 47.7517 20.4768 47.7204 20.4031C47.696 20.3459 47.5936 20.0371 47.8265 19.7003L48.8135 20.3828L49.8005 21.0653C50.2003 20.4871 50.0942 19.8528 49.9292 19.4644C49.7571 19.0596 49.4558 18.7221 49.1079 18.4811L48.4248 19.4678ZM48.8135 20.3828L47.8269 19.6998C48.0597 19.3634 48.3845 19.3502 48.4469 19.3528C48.527 19.3561 48.5363 19.3779 48.5031 19.355L47.8203 20.3418L47.1375 21.3286C47.4858 21.5696 47.908 21.7326 48.3477 21.7508C48.7695 21.7682 49.4001 21.6436 49.8001 21.0659L48.8135 20.3828ZM47.8203 20.3418L48.5034 19.3552C48.4701 19.3321 48.4936 19.3329 48.5249 19.4065C48.5491 19.4637 48.6516 19.7722 48.4189 20.1089L47.4316 19.4268L46.4444 18.7446C46.0449 19.3228 46.151 19.9568 46.316 20.3451C46.488 20.7499 46.7892 21.0875 47.1373 21.3284L47.8203 20.3418ZM40.1709 11.9746L40.1101 13.1731C41.1546 13.226 41.9865 14.0915 41.9865 15.1504L43.1865 15.1504L44.3865 15.1504C44.3865 12.8074 42.5468 10.8935 40.2317 10.7761L40.1709 11.9746ZM43.1865 15.1504L41.9869 15.1217L41.983 15.2847L43.1826 15.3135L44.3823 15.3422L44.3862 15.1791L43.1865 15.1504ZM43.1826 15.3135L41.9842 15.2528C41.9312 16.2973 41.0662 17.1289 40.0076 17.1291L40.0078 18.3291L40.008 19.5291C42.3509 19.5287 44.2638 17.689 44.3811 15.3742L43.1826 15.3135ZM40.0078 18.3291L40.0364 17.1294L39.8723 17.1255L39.8438 18.3252L39.8152 19.5249L39.9792 19.5288L40.0078 18.3291ZM39.8438 18.3252L39.9045 17.1267C38.8938 17.0755 38.0817 16.2634 38.0305 15.2528L36.832 15.3135L35.6336 15.3742C35.7471 17.6149 37.5424 19.4101 39.783 19.5237L39.8438 18.3252ZM36.832 15.3135L38.0317 15.2847L38.0278 15.1217L36.8281 15.1504L35.6285 15.1791L35.6324 15.3422L36.832 15.3135ZM36.8281 15.1504L38.0281 15.1504C38.0281 14.0573 38.9147 13.1707 40.0078 13.1707V11.9707V10.7707C37.5892 10.7707 35.6281 12.7318 35.6281 15.1504L36.8281 15.1504ZM40.0078 11.9707L39.9791 13.1704L40.1422 13.1743L40.1709 11.9746L40.1996 10.775L40.0365 10.771L40.0078 11.9707ZM40.0078 13.1709V11.9709C38.252 11.9709 36.8283 13.3946 36.8283 15.1504L38.0283 15.1504L39.2283 15.1504C39.2283 14.72 39.5775 14.3709 40.0078 14.3709V13.1709ZM38.0283 15.1504L36.8283 15.1507C36.8287 16.9066 38.2526 18.3289 40.0078 18.3289V17.1289V15.9289C39.5771 15.9289 39.2284 15.58 39.2283 15.1501L38.0283 15.1504ZM40.0078 17.1289L40.0081 18.3289C41.7633 18.3284 43.1859 16.9059 43.1863 15.1507L41.9863 15.1504L40.7863 15.1501C40.7862 15.5802 40.4377 15.9288 40.0075 15.9289L40.0078 17.1289ZM41.9863 15.1504L43.1863 15.1504C43.1863 13.3952 41.7639 11.9714 40.0081 11.9709L40.0078 13.1709L40.0075 14.3709C40.4374 14.371 40.7863 14.7198 40.7863 15.1504L41.9863 15.1504ZM40.8027 13.5605L40.8023 14.7605C40.5792 14.7605 40.3977 14.5798 40.3977 14.3555H41.5977H42.7977C42.7977 13.2534 41.9039 12.361 40.8032 12.3605L40.8027 13.5605ZM41.5977 14.3555L40.3977 14.355C40.3977 14.1313 40.5786 13.9505 40.8023 13.9504L40.8027 15.1504L40.8032 16.3504C41.9043 16.35 42.7973 15.457 42.7977 14.3559L41.5977 14.3555ZM40.8027 15.1504V13.9504C41.027 13.9504 41.2077 14.1319 41.2078 14.355L40.0078 14.3555L38.8078 14.3559C38.8082 15.4567 39.7007 16.3504 40.8027 16.3504V15.1504ZM40.0078 14.3555H41.2078C41.2078 14.5793 41.0265 14.7605 40.8027 14.7605V13.5605V12.3605C39.701 12.3605 38.8078 13.2538 38.8078 14.3555H40.0078Z" fill="#004CFF" mask="url(#path-3-inside-1_2056_2191)"/>
</svg>
