<svg width="99" height="100" viewBox="0 0 99 100" fill="none" xmlns="http://www.w3.org/2000/svg">
<rect width="99" height="100" rx="49.5" fill="#004CFF"/>
<path fill-rule="evenodd" clip-rule="evenodd" d="M58.3162 19.9039C59.3129 19.7736 60.3224 19.7736 61.3192 19.9039C63.8627 20.1446 66.2816 21.1159 68.2822 22.7C70.8573 24.7544 72.5841 27.6817 73.1332 30.9236C73.6994 33.6347 73.3514 36.4563 72.1432 38.95C71.4007 40.3193 70.5511 41.6282 69.6022 42.8644C69.3162 43.2213 69.1367 43.6511 69.0841 44.1048C69.0316 44.5585 69.1082 45.0178 69.3052 45.4302C69.5229 45.9598 69.7429 46.4778 69.9604 46.9899C70.5669 48.4182 71.1536 49.7998 71.6152 51.2526C72.6643 54.6693 72.946 58.2744 72.4402 61.8118C72.0323 65.2924 70.9089 68.6518 69.1402 71.6802C68.4286 73.0163 67.5769 74.2733 66.5992 75.4302C65.8939 75.9857 65.0869 76.3991 64.2232 76.6473C60.5494 78.0427 56.7307 79.0246 52.8382 79.575C50.9902 79.7723 49.1092 79.9039 47.2282 79.9697C45.9977 80.0558 44.7627 80.0558 43.5322 79.9697C39.7877 79.8379 36.0641 79.3533 32.4112 78.5223C28.6116 77.608 24.9094 76.3302 21.3562 74.7065C19.7984 73.9291 18.6122 72.5693 18.0562 70.9236C17.3884 69.4088 16.8171 67.7018 16.2301 65.9479C15.9758 65.1881 15.7185 64.4195 15.4492 63.6539C15.1794 62.5757 15.0136 61.4741 14.9542 60.3644C14.7376 59.005 14.6492 57.6284 14.6902 56.2526H14.4922C14.7593 53.3585 15.2447 50.4885 15.9442 47.6671C16.9399 44.0314 18.7319 40.6611 21.1912 37.7986C21.3076 37.7353 21.4381 37.7021 21.5707 37.7021C21.7033 37.7021 21.8338 37.7353 21.9502 37.7986C26.4326 39.6763 30.1517 43.0012 32.5102 47.2394C32.6789 47.6273 32.97 47.9496 33.3393 48.1574C33.7086 48.3652 34.1359 48.4471 34.5562 48.3908C35.9257 48.2921 37.2952 48.1605 38.6647 48.0289C40.0342 47.8973 41.4037 47.7658 42.7732 47.6671C43.8622 47.6671 44.9512 47.6671 46.0732 47.8315H49.8022C50.2355 47.8909 50.6763 47.8032 51.0534 47.5824C51.4306 47.3616 51.7222 47.0206 51.8812 46.6144C52.0215 46.1539 52.0178 45.6616 51.8704 45.2032C51.723 44.7448 51.439 44.3421 51.0562 44.0486C49.0075 42.5458 47.5208 40.404 46.8322 37.9631C45.8308 35.1319 45.8308 32.0444 46.8322 29.2131C47.8085 26.1196 49.8705 23.4803 52.6402 21.7789C54.3634 20.7293 56.3052 20.0879 58.3162 19.9039ZM61.2956 26.9078C61.9817 26.2972 62.8747 25.969 63.7942 25.9894C64.6496 26.0109 65.4722 26.3224 66.1262 26.8726C66.7801 27.4227 67.2263 28.1787 67.3912 29.0157C67.454 29.5183 67.4113 30.0285 67.2657 30.5137C67.12 30.999 66.8747 31.4487 66.5453 31.8344C66.216 32.22 65.8097 32.5331 65.3523 32.7538C64.895 32.9745 64.3966 33.0979 63.8888 33.1162C63.381 33.1346 62.875 33.0474 62.4028 32.8602C61.9307 32.6731 61.5028 32.3901 61.1463 32.0292C60.7897 31.6683 60.5125 31.2374 60.332 30.7639C60.1516 30.2904 60.072 29.7847 60.0982 29.2789C60.1816 28.3659 60.6095 27.5184 61.2956 26.9078Z" fill="#ECA61B"/>
<path fill-rule="evenodd" clip-rule="evenodd" d="M51.9472 17.6671C54.3738 16.3845 57.0881 15.7392 59.8342 15.7921C60.7444 15.8188 61.6502 15.9289 62.5402 16.121C65.4742 16.5364 68.2535 17.6908 70.6152 19.4751C72.9769 21.2595 74.8431 23.6148 76.0372 26.3184C76.0847 26.4132 76.1433 26.5107 76.2025 26.6094C76.3487 26.8532 76.4992 27.104 76.4992 27.3381H86.6632C86.8854 27.3701 87.0989 27.446 87.2912 27.5615C87.4835 27.677 87.6507 27.8296 87.783 28.0105C87.9152 28.1913 88.0098 28.3967 88.0612 28.6145C88.1126 28.8324 88.1197 29.0583 88.0822 29.2789C88.1743 31.3295 88.0192 33.3836 87.6202 35.3973C87.0748 37.3407 86.015 39.1021 84.5519 40.4969C83.0888 41.8917 81.2762 42.8685 79.3042 43.325C77.8818 43.6152 76.4331 43.7585 74.9812 43.7526C74.8179 43.7567 74.6572 43.7935 74.5084 43.8607C74.3597 43.9279 74.226 44.0241 74.1152 44.1438C74.0044 44.2634 73.9188 44.4039 73.8635 44.5571C73.8082 44.7103 73.7843 44.8729 73.7932 45.0355V45.3644C73.9988 45.9282 74.2173 46.4856 74.4356 47.0425C74.9179 48.273 75.3994 49.5013 75.7402 50.7921C76.8668 54.9391 77.1141 59.2747 76.4662 63.5223C75.5688 68.7476 73.4177 73.6793 70.1962 77.8973C69.1389 79.1719 67.6887 80.0624 66.0712 80.4302C63.1777 81.4892 60.2247 82.3788 57.2272 83.0947C54.5674 83.61 51.8783 83.9615 49.1752 84.1473C47.4204 84.3135 45.6575 84.3794 43.8952 84.3447C40.424 84.305 36.9649 83.9304 33.5662 83.2263C28.738 82.3206 24.054 80.7716 19.6402 78.621L18.5842 77.996L17.6272 76.9434C17.0164 76.0209 16.717 75.6882 16.3739 75.307C16.1053 75.0085 15.8099 74.6802 15.3172 74.0157C14.9746 73.3057 14.5421 72.6424 14.0302 72.0421C12.6111 69.2967 11.6418 66.3427 11.1592 63.2921C10.6599 60.4037 10.4718 57.4703 10.5982 54.5421C10.704 51.1777 11.3273 47.8495 12.4462 44.6736C13.8372 40.7882 15.9786 37.212 18.7492 34.1473C19.0572 33.6528 19.544 33.2951 20.109 33.1481C20.674 33.0012 21.2741 33.0763 21.7852 33.3579C27.1759 35.1573 31.8174 38.6852 34.9852 43.3908C35.109 43.5914 35.2845 43.7552 35.4935 43.8652C35.7024 43.9751 35.9372 44.0271 36.1732 44.0157C38.2788 43.8205 40.4026 43.6796 42.5176 43.5392C43.2533 43.4904 43.9878 43.4417 44.7202 43.3908C44.1652 42.3222 43.6695 41.224 43.2352 40.1013C42.0484 37.1602 41.7167 33.9453 42.2782 30.825C42.7209 28.0223 43.8295 25.3657 45.5114 23.0768C47.1934 20.788 49.4 18.9331 51.9472 17.6671ZM61.3192 19.9039C60.3224 19.7736 59.3129 19.7736 58.3162 19.9039C56.3052 20.0879 54.3634 20.7293 52.6402 21.7789C49.8705 23.4803 47.8085 26.1196 46.8322 29.2131C45.8308 32.0444 45.8308 35.1319 46.8322 37.9631C47.5208 40.404 49.0075 42.5458 51.0562 44.0486C51.439 44.3421 51.723 44.7448 51.8704 45.2032C52.0178 45.6616 52.0215 46.1539 51.8812 46.6144C51.7222 47.0206 51.4306 47.3616 51.0534 47.5824C50.6763 47.8032 50.2355 47.8909 49.8022 47.8315H46.0732C44.9512 47.6671 43.8622 47.6671 42.7732 47.6671C41.4037 47.7658 40.0342 47.8973 38.6647 48.0289C37.2952 48.1605 35.9257 48.2921 34.5562 48.3908C34.1359 48.4471 33.7086 48.3652 33.3393 48.1574C32.97 47.9496 32.6789 47.6273 32.5102 47.2394C30.1517 43.0012 26.4326 39.6763 21.9502 37.7986C21.8338 37.7353 21.7033 37.7021 21.5707 37.7021C21.4381 37.7021 21.3076 37.7353 21.1912 37.7986C18.7319 40.6611 16.9399 44.0314 15.9442 47.6671C15.2447 50.4885 14.7593 53.3585 14.4922 56.2526H14.6902C14.6492 57.6284 14.7376 59.005 14.9542 60.3644C15.0136 61.4741 15.1794 62.5757 15.4492 63.6539C15.7185 64.4195 15.9758 65.1881 16.2301 65.9479C16.8171 67.7018 17.3884 69.4088 18.0562 70.9236C18.6122 72.5693 19.7984 73.9291 21.3562 74.7065C24.9094 76.3302 28.6116 77.608 32.4112 78.5223C36.0641 79.3533 39.7877 79.8379 43.5322 79.9697C44.7627 80.0558 45.9977 80.0558 47.2282 79.9697C49.1092 79.9039 50.9902 79.7723 52.8382 79.575C56.7307 79.0246 60.5494 78.0427 64.2232 76.6473C65.0869 76.3991 65.8939 75.9857 66.5992 75.4302C67.5769 74.2733 68.4286 73.0163 69.1402 71.6802C70.9089 68.6518 72.0323 65.2924 72.4402 61.8118C72.946 58.2744 72.6643 54.6693 71.6152 51.2526C71.1536 49.7998 70.5669 48.4182 69.9604 46.9899C69.7429 46.4778 69.5229 45.9598 69.3052 45.4302C69.1082 45.0178 69.0316 44.5585 69.0841 44.1048C69.1367 43.6511 69.3162 43.2213 69.6022 42.8644C70.5511 41.6282 71.4007 40.3193 72.1432 38.95C73.3514 36.4563 73.6994 33.6347 73.1332 30.9236C72.5841 27.6817 70.8573 24.7544 68.2822 22.7C66.2816 21.1159 63.8627 20.1446 61.3192 19.9039ZM77.0409 30.2657C77.7918 33.903 77.3954 37.6835 75.9052 41.0881C77.1183 41.1186 78.3255 40.9106 79.4579 40.476C80.5903 40.0414 81.6258 39.3887 82.5052 38.5552C84.3912 36.7084 85.5005 34.2147 85.6072 31.5815C85.6072 30.9181 85.6072 30.5892 85.4422 30.4261C85.28 30.2657 84.9583 30.2657 84.3202 30.2657H77.0409Z" fill="#ECA61B"/>
<path d="M82.5052 38.5552C84.3912 36.7084 85.5005 34.2147 85.6072 31.5815C85.6072 30.9181 85.6072 30.5892 85.4422 30.4261C85.28 30.2657 84.9583 30.2657 84.3202 30.2657H77.0409C77.7918 33.903 77.3954 37.6835 75.9052 41.0881C77.1183 41.1186 78.3255 40.9106 79.4579 40.476C80.5903 40.0414 81.6258 39.3887 82.5052 38.5552Z" fill="#FF9800"/>
</svg>
